<svg width="65" height="79" viewBox="0 0 65 79" fill="none" xmlns="http://www.w3.org/2000/svg">
<path d="M34.1943 0.469276L33.9646 0.506523L34 5.27375C34.0176 7.89944 34.0618 11.3818 34.0883 13.0298L34.1413 16.0186L37.7279 16.0745C39.6978 16.1117 41.3321 16.1117 41.3586 16.0838C41.3851 16.0559 41.4735 14.6592 41.5441 12.9739C41.6148 11.2886 41.7031 9.88269 41.7385 9.85475C41.8268 9.75233 43.2491 9.9758 44.2385 10.2365C46.9063 10.9441 50.8993 12.5829 53.9116 14.1937C55.6166 15.1062 56.6501 15.7952 56.6501 16.0186C56.659 16.5121 56.0936 23.4581 56.0406 23.5047C56.0141 23.5326 54.8127 24.1192 53.3816 24.7989C48.5141 27.108 43.3551 29.5661 42.4982 29.9851L41.6413 30.4041L39.0618 34.1006C37.6307 36.1304 35.9523 38.5233 35.325 39.4171C33.5494 41.959 33.2137 42.4153 32.9487 42.6201C32.7102 42.8063 32.7102 42.8063 32.5865 42.6294C32.5159 42.527 30.4752 39.6778 28.0459 36.3073L23.6289 30.1713L16.6236 26.8845C12.7632 25.0782 9.55649 23.5698 9.49466 23.5233C9.40632 23.4674 9.30914 22.4991 9.12363 19.6778C8.98229 17.6015 8.90278 15.8883 8.92929 15.8603C10.3692 14.6965 14.1678 12.7691 17.6925 11.4097C19.9717 10.5345 21.818 10.013 23.2402 9.84544L23.7879 9.78027V10.0317C23.7879 10.4227 24.0618 16.0838 24.0795 16.0931C24.0883 16.0931 25.7491 16.0745 27.7632 16.0466L31.4293 16L31.4558 8.24395L31.4735 0.497215H30.0424C27.5247 0.497215 24 1.18623 19.3268 2.59219C14.3533 4.09126 11.7826 5.18064 4.44165 8.94228C3.34625 9.50094 2.04766 10.1434 1.55296 10.3669L0.643066 10.7672V11.6145C0.643066 12.7598 1.04943 22.0708 1.21727 24.7989C1.87982 35.4227 3.2049 43.4209 5.45755 50.4041C7.58653 56.9777 10.4134 61.9218 14.689 66.5494C17.7632 69.8734 22.3568 73.4767 27.3657 76.4935C29.3003 77.6574 31.0141 78.5233 31.3851 78.5233C31.4381 78.5233 31.4735 76.8659 31.4735 73.9609V69.4078L30.8727 68.9609C30.5371 68.7095 29.4417 67.9646 28.4346 67.3035C25.5636 65.4041 24.371 64.4078 21.8975 61.8566C18.6554 58.5047 16.3409 55.3855 14.9452 52.4991C14.3886 51.3259 13.9381 50.1434 14.0265 50.0503C14.053 50.0224 15.6077 50.7207 17.4894 51.5959C19.3798 52.4711 21.1819 53.2998 21.5 53.4302L22.0742 53.6816L24.7243 51.689C26.1731 50.5903 27.4275 49.6685 27.4982 49.622C27.6925 49.5196 27.3745 49.8175 24.6448 52.3501C23.3021 53.6071 22.1978 54.6965 22.1978 54.771C22.2067 54.9572 23.2314 59.9013 23.2667 59.9386C23.2844 59.9572 24.2208 60.0596 25.3339 60.1713C26.4558 60.2831 27.4717 60.3855 27.613 60.3948L27.8515 60.432L29.1501 56.298C29.8657 54.0354 30.4576 52.1825 30.4664 52.2011C30.4841 52.2104 29.9894 54.2961 29.3798 56.8194L28.2667 61.4097L30.4929 63.7561L32.7102 66.0931L34.9364 63.7467L37.1625 61.4004L36.9682 60.5345C36.8621 60.0596 36.4028 58.0391 35.9346 56.0466C35.4752 54.054 35.1042 52.406 35.1219 52.3967C35.1395 52.378 35.6607 54.0633 36.2791 56.1583C36.8975 58.244 37.4452 60.0596 37.4982 60.1993C37.5689 60.4041 37.6484 60.46 37.8692 60.46C38.2402 60.46 42.4364 59.9199 42.4894 59.8734C42.5247 59.8268 42.6572 59.0075 43.0901 56.0372C43.1696 55.4693 43.2226 54.9106 43.2049 54.7803C43.1872 54.622 42.4717 53.8957 40.7314 52.2663C38.4876 50.1806 37.7455 49.4544 38.0989 49.7244C38.1696 49.771 39.3268 50.6555 40.6607 51.6797C41.9947 52.7039 43.1696 53.5978 43.2756 53.6629C43.4346 53.7654 43.894 53.5791 47.4452 51.9404C49.6448 50.9255 51.4646 50.1248 51.4911 50.1434C51.5088 50.1713 51.4116 50.5251 51.2614 50.9255C49.795 54.8082 45.2367 60.7486 40.8816 64.4451C39.8127 65.3482 38.7526 66.1117 35.6077 68.2533C34.9099 68.7188 34.2561 69.1937 34.1501 69.2961C33.9558 69.4823 33.9558 69.5289 33.947 72.3035C33.947 73.8492 33.9735 75.8883 34 76.8287L34.0618 78.5326L34.2826 78.4767C34.9452 78.2998 37.1272 77.1173 39.3798 75.7021C46.6855 71.1024 51.977 66.0931 55.4399 60.4972C59.2915 54.2589 61.977 45.5903 63.3993 34.8082C64 30.2644 64.3003 26.1862 64.5123 19.7244C64.5653 18.1881 64.6448 16.0745 64.689 15.0224C64.7332 13.9702 64.7773 12.5829 64.7773 11.9311V10.7579L64.0971 10.46C63.7173 10.2924 61.8003 9.31472 59.8303 8.2812C57.8427 7.23837 55.4929 6.0838 54.5388 5.67412C48.0724 2.93669 41.3498 0.953453 37.0035 0.506523C36.0759 0.404099 34.689 0.394791 34.1943 0.469276Z" fill="#FF0404"/>
</svg>
