<svg width="31" height="29" viewBox="0 0 31 29" fill="none" xmlns="http://www.w3.org/2000/svg">
<path fill-rule="evenodd" clip-rule="evenodd" d="M25.0962 3.79284H22.052C21.7636 1.65615 19.8329 0 17.5021 0H13.4979C11.1671 0 9.23642 1.65468 8.94797 3.79137L5.91931 3.79284C2.65493 3.79284 0 6.30278 0 9.38731V14.4821C0 14.8525 0.195398 15.1978 0.522611 15.4021C3.71566 17.3991 7.4949 18.7291 11.4509 19.2507C12.0387 19.333 12.5783 18.9848 12.7334 18.4499C13.0792 17.2581 14.188 16.4572 15.4922 16.4572C16.7825 16.4572 17.9022 17.2757 18.2154 18.444C18.3472 18.9377 18.8171 19.2757 19.3413 19.2757C19.3955 19.2757 19.4483 19.2728 19.5026 19.2654C23.4849 18.7438 27.2812 17.4065 30.4789 15.4021C30.8046 15.1963 31 14.8525 31 14.4821V9.38731C31 6.30278 28.3513 3.79284 25.0962 3.79284ZM28.6738 13.8796C26.1259 15.38 23.1887 16.4307 20.0965 16.9465C19.2467 15.3198 17.4788 14.2529 15.4922 14.2529C13.5212 14.2529 11.7456 15.3168 10.8725 16.9333C7.79885 16.4204 4.87099 15.3756 2.32616 13.8796V9.38731C2.32616 7.51808 3.93742 5.99712 5.92086 5.99712L10.0738 5.99418C10.384 5.99418 10.6786 5.87809 10.8973 5.67089C11.1144 5.46222 11.2369 5.18301 11.2369 4.89057L11.2354 4.34685C11.2354 3.16535 12.2511 2.20428 13.4979 2.20428H17.5021C18.5457 2.20428 19.4281 2.87879 19.6871 3.79284H15.5C14.858 3.79284 14.3369 4.2866 14.3369 4.89498C14.3369 5.50336 14.858 5.99712 15.5 5.99712H25.0962C27.0688 5.99712 28.6738 7.51808 28.6738 9.38731V13.8796ZM16.6628 19.6672V21.5688C16.6628 22.1772 16.1417 22.6709 15.4997 22.6709C14.8577 22.6709 14.3366 22.1772 14.3366 21.5688V19.6672C14.3366 19.0588 14.8577 18.5651 15.4997 18.5651C16.1417 18.5651 16.6628 19.0588 16.6628 19.6672ZM29.7981 18.7001C29.1887 18.7001 28.7033 19.1498 28.6568 19.7141C28.6568 19.7141 28.418 22.2843 28.3683 23.0955C28.311 23.9933 27.9264 24.9706 27.3882 25.5834C26.6299 26.4504 25.7894 26.7898 24.3906 26.7928C23.4725 26.7942 18.5209 26.7957 14.7804 26.7957C14.1369 26.7957 13.6158 27.2895 13.6158 27.8979C13.6158 28.5062 14.1369 29 14.7789 29C18.3891 29 23.5284 28.9985 24.3952 28.9971C26.464 28.9927 27.9853 28.3549 29.1794 26.9912C30.037 26.0125 30.6015 24.6061 30.6898 23.2277C30.725 22.6608 30.8452 21.1901 30.9122 20.371C30.9397 20.035 30.9581 19.8087 30.9581 19.7993C30.9581 19.1924 30.4386 18.7001 29.7981 18.7001ZM6.60971 26.7925C6.91367 26.794 7.54328 26.794 8.36985 26.794C9.01187 26.794 9.53758 27.2877 9.53758 27.8961C9.53758 28.5045 9.01031 28.9982 8.36674 28.9982C7.52932 28.9982 6.91832 28.9982 6.60661 28.9968C4.53633 28.9924 3.01502 28.3546 1.82092 26.9894C0.964893 26.0122 0.398859 24.6058 0.312016 23.2274C0.276255 22.6687 0.158691 21.2322 0.0911235 20.4067C0.0620154 20.051 0.0421811 19.8087 0.0421811 19.799C0.0421811 19.1921 0.561691 18.6998 1.20216 18.6998C1.81162 18.6998 2.29546 19.1495 2.34353 19.7153C2.34353 19.7153 2.58235 22.2855 2.63353 23.0952C2.69091 23.993 3.07395 24.9703 3.61207 25.5816C4.37195 26.4516 5.21247 26.7895 6.60971 26.7925Z" fill="white"/>
</svg>
