<svg width="37" height="37" viewBox="0 0 37 37" fill="none" xmlns="http://www.w3.org/2000/svg">
<path d="M36.6127 20.6204C35.8728 19.1118 34.2832 18.5626 32.9941 19.369L26.1096 23.6655C25.6413 23.1511 25.0286 22.8452 24.3754 22.8452H24.1384C24.1211 22.8452 24.1037 22.8452 24.0806 22.8452C22.9419 22.9355 21.3869 22.6714 20.2828 22.428C19.358 22.2264 18.462 21.6216 17.6932 20.683C16.8955 19.6958 15.8665 18.9936 14.618 18.6043C12.8491 18.0481 10.8895 18.2497 9.09181 19.1674L5.32294 21.0723L5.20733 21.128L5.14374 20.9194C4.98189 20.4049 4.49633 20.1477 4.07435 20.3424L0.530912 21.9761C0.178302 22.136 -0.0355756 22.5671 0.00488785 23.012L1.18411 36.1101C1.21301 36.416 1.35752 36.6941 1.57718 36.854C1.71013 36.9513 1.86042 37 2.01072 37C2.10898 37 2.21303 36.9791 2.30552 36.9374L8.46174 34.1079C8.88949 33.9132 9.10337 33.3361 8.94152 32.8217L8.78545 32.3281L9.69876 31.9735C9.72188 31.9666 9.74501 31.9526 9.76235 31.9457C11.3982 31.1114 13.9705 32.3767 14.722 32.7939C15.0226 32.9538 15.3174 33.1693 15.6238 33.3918C17.04 34.4277 18.4678 34.7822 19.7568 34.7822C22.5025 34.7822 24.6355 33.1832 24.7511 33.0928L35.6763 25.1255C36.4913 24.5346 37 23.457 37 22.3098C36.9942 21.705 36.8613 21.128 36.6127 20.6204ZM2.71016 34.6084L1.71591 23.5543L3.88937 22.5532L3.95874 22.7756C3.95874 22.7826 3.96452 22.7896 3.96452 22.7965C3.96452 22.8035 3.9703 22.8035 3.9703 22.8104L6.89523 31.9944V32.0013C6.89523 32.0083 6.90101 32.0152 6.90101 32.0222L7.0802 32.5853L2.71016 34.6084ZM34.815 23.4014L23.8725 31.3826C23.7164 31.5007 20.0111 34.2539 16.4793 31.6815C16.144 31.4312 15.7798 31.167 15.3868 30.9654C13.9532 30.1868 11.2479 29.0396 9.13806 30.0825L8.17849 30.4579L5.79693 22.9703L9.73345 20.9959C11.1959 20.252 12.7855 20.0851 14.196 20.5301C15.144 20.829 15.9186 21.3435 16.5024 22.0665C17.514 23.311 18.7163 24.1105 19.9822 24.3816C21.1672 24.6389 22.8494 24.9309 24.1558 24.8335H24.3639C24.6933 24.8335 24.9997 25.049 25.1616 25.4036C25.2367 25.5635 25.2772 25.7443 25.2772 25.932C25.2772 26.224 25.1789 26.509 25.0113 26.7106C24.8379 26.9192 24.6124 27.0304 24.3639 27.0304H20.7742C20.462 27.0026 17.7279 26.7245 15.6989 26.0432C15.2596 25.8972 14.8029 26.2031 14.6758 26.7384C14.5544 27.2668 14.8087 27.816 15.2538 27.969C17.5602 28.7407 20.5545 29.0118 20.6817 29.0257C20.7048 29.0257 20.7221 29.0257 20.7395 29.0257H24.3581C25.046 29.0257 25.6934 28.7059 26.1731 28.1219C26.6587 27.538 26.9246 26.7663 26.9246 25.9389C26.9246 25.7651 26.9073 25.5913 26.8841 25.4175L33.7398 21.1419C34.2485 20.8221 34.8786 21.0376 35.1676 21.6355C35.2659 21.844 35.3237 22.0735 35.3237 22.2959C35.3352 22.7478 35.1445 23.165 34.815 23.4014ZM21.1557 18.1802C25.3234 18.1802 28.7166 14.1062 28.7166 9.09357C28.7166 4.08098 25.3292 0 21.1615 0C16.9995 0 13.6064 4.07403 13.6064 9.08662C13.6006 14.0992 16.988 18.1802 21.1557 18.1802ZM21.1557 1.9953C24.4159 1.9953 27.0576 5.17944 27.0576 9.09357C27.0576 13.0077 24.4101 16.1849 21.1557 16.1849C17.9013 16.1849 15.2596 13.0008 15.2596 9.09357C15.2596 5.17249 17.9013 1.9953 21.1557 1.9953Z" fill="white"/>
<path d="M21.1558 7.7935C20.6991 7.7935 20.3292 8.23845 20.3292 8.78768V13.1885C20.3292 13.7377 20.6991 14.1826 21.1558 14.1826C21.6124 14.1826 21.9824 13.7377 21.9824 13.1885V8.78768C21.9824 8.23845 21.6124 7.7935 21.1558 7.7935ZM21.1558 7.13303C21.7107 7.13303 22.1616 6.59076 22.1616 5.92334C22.1616 5.25592 21.7165 4.7206 21.1558 4.7206C20.6009 4.7206 20.1558 5.25592 20.1558 5.92334C20.1558 6.59076 20.6009 7.13303 21.1558 7.13303Z" fill="white"/>
</svg>
