<svg width="23" height="28" viewBox="0 0 23 28" fill="none" xmlns="http://www.w3.org/2000/svg">
<path d="M8.94444 25.3333H14.0556C14.0556 26.8 12.9056 28 11.5 28C10.0944 28 8.94444 26.8 8.94444 25.3333ZM23 22.6667V24H0V22.6667L2.55556 20V12C2.55556 7.86667 5.11111 4.26667 8.94444 3.06667V2.66667C8.94444 1.2 10.0944 0 11.5 0C12.9056 0 14.0556 1.2 14.0556 2.66667V3.06667C17.8889 4.26667 20.4444 7.86667 20.4444 12V20L23 22.6667ZM17.8889 12C17.8889 8.26667 15.0778 5.33333 11.5 5.33333C7.92222 5.33333 5.11111 8.26667 5.11111 12V21.3333H17.8889V12Z" fill="#5C5C5C"/>
</svg>
