<svg width="26" height="31" viewBox="0 0 26 31" fill="none" xmlns="http://www.w3.org/2000/svg">
<path d="M22.1877 18.5776C22.4479 18.42 22.6952 18.2459 22.9321 18.0546C23.1682 17.8634 23.3905 17.6566 23.5982 17.4351C23.8067 17.2137 23.9988 16.9794 24.1754 16.7321C24.3512 16.4839 24.5106 16.2263 24.6519 15.9566C24.7932 15.6878 24.9156 15.4104 25.0198 15.1252C25.1232 14.8391 25.2068 14.5479 25.2714 14.2506C25.3352 13.9534 25.3791 13.6535 25.4032 13.3503C25.4265 13.047 25.4291 12.7445 25.4118 12.4404C25.3946 12.1371 25.3567 11.8364 25.2981 11.5383C25.2395 11.2402 25.1611 10.9472 25.0629 10.6594C24.9647 10.3717 24.8475 10.0916 24.7122 9.82024C24.5761 9.54797 24.4219 9.2869 24.2504 9.03617C24.0789 8.78458 23.8911 8.54678 23.6878 8.32104C23.4836 8.09616 23.2656 7.88506 23.0329 7.68948C22.8012 7.49303 22.5565 7.31381 22.2997 7.15097C22.043 6.98813 21.7767 6.84338 21.5001 6.71758L22.2015 5.18822C22.2472 5.08828 22.2833 4.98402 22.3092 4.87718C22.3342 4.76948 22.3497 4.66092 22.3531 4.54977C22.3574 4.43948 22.3514 4.33006 22.3333 4.2215C22.3161 4.11207 22.2885 4.00609 22.2497 3.90184C22.211 3.79845 22.1636 3.70022 22.105 3.60545C22.0473 3.51153 21.9809 3.42451 21.906 3.34352C21.831 3.26252 21.7483 3.18929 21.6587 3.12467C21.5699 3.06005 21.4743 3.0049 21.3743 2.95838C21.2735 2.91271 21.1701 2.87652 21.0624 2.85067C20.9547 2.82569 20.8462 2.81104 20.7359 2.80673C20.6256 2.80242 20.5162 2.80932 20.4068 2.82655C20.2973 2.84378 20.1914 2.87222 20.088 2.91013C19.9846 2.9489 19.8855 2.99715 19.7916 3.05488C19.6977 3.1126 19.6098 3.17895 19.5288 3.25391C19.4478 3.32973 19.3754 3.41158 19.3108 3.50119C19.2453 3.5908 19.1902 3.68557 19.1445 3.78552L18.4431 5.31402L15.3853 3.91132L16.0866 2.38282C16.1332 2.28287 16.1685 2.17862 16.1943 2.07092C16.2202 1.96408 16.2348 1.85465 16.2391 1.74437C16.2435 1.63408 16.2366 1.52466 16.2193 1.41523C16.2012 1.30667 16.1737 1.19983 16.1349 1.09644C16.097 0.993044 16.0487 0.893959 15.991 0.800043C15.9333 0.706128 15.8661 0.619105 15.7911 0.538114C15.7162 0.457123 15.6343 0.383886 15.5447 0.319265C15.4551 0.254644 15.3603 0.19864 15.2595 0.152974C15.1596 0.107309 15.0553 0.0711216 14.9476 0.0452732C14.8408 0.0202865 14.7313 0.00477749 14.621 0.00133105C14.5108 -0.00297695 14.4013 0.00305432 14.2919 0.0211481C14.1833 0.0383803 14.0765 0.0659518 13.9731 0.104724C13.8697 0.143497 13.7706 0.190885 13.6767 0.249475C13.5828 0.307203 13.4958 0.373546 13.4148 0.448507C13.3338 0.523467 13.2606 0.606181 13.1959 0.695789C13.1313 0.784534 13.0753 0.880173 13.0297 0.98012L12.3283 2.50862L10.7998 1.80727C10.699 1.7616 10.5956 1.72541 10.4879 1.70043C10.3802 1.67458 10.2716 1.65993 10.1614 1.65562C10.0511 1.65131 9.94164 1.65821 9.83222 1.67544C9.72279 1.69267 9.61681 1.7211 9.51342 1.75902C9.41003 1.79779 9.31094 1.84604 9.21703 1.90377C9.12311 1.96149 9.03523 2.02784 8.95424 2.1028C8.87325 2.17862 8.80087 2.26047 8.73625 2.35008C8.67077 2.43969 8.61562 2.53446 8.56996 2.63441C8.52343 2.73522 8.48811 2.83861 8.46226 2.94631C8.43641 3.05401 8.42176 3.16258 8.41745 3.27286C8.41315 3.38315 8.42004 3.49344 8.43727 3.602C8.45536 3.71142 8.48294 3.8174 8.52171 3.92079C8.55962 4.02419 8.60787 4.12327 8.6656 4.21719C8.72333 4.3111 8.79053 4.39899 8.86549 4.47998C8.94045 4.56097 9.0223 4.63421 9.11191 4.69883C9.20152 4.76345 9.2963 4.81859 9.3971 4.86512L10.9256 5.56647L3.91123 20.8523L2.38274 20.1509C2.28279 20.1053 2.17854 20.0691 2.0717 20.0432C1.964 20.0183 1.85457 20.0027 1.74429 19.9993C1.634 19.995 1.52457 20.0019 1.41515 20.0191C1.30659 20.0363 1.20061 20.0648 1.09636 20.1027C0.992962 20.1415 0.894738 20.1897 0.799961 20.2474C0.706046 20.3052 0.619023 20.3715 0.538032 20.4465C0.457041 20.5214 0.383804 20.6041 0.319183 20.6938C0.254562 20.7834 0.199419 20.8781 0.152892 20.9781C0.107227 21.0789 0.0710394 21.1823 0.045191 21.29C0.0202044 21.3977 0.00469554 21.5063 0.00124888 21.6165C-0.00305911 21.7268 0.00383371 21.8371 0.0210659 21.9457C0.0382981 22.0551 0.0667315 22.1611 0.104642 22.2645C0.143415 22.3679 0.191665 22.4669 0.249393 22.5609C0.30712 22.6548 0.373464 22.7427 0.448424 22.8237C0.523385 22.9046 0.606099 22.977 0.695706 23.0425C0.785314 23.1071 0.880091 23.1623 0.980038 23.2079L2.50853 23.9101L1.80718 25.4386C1.76152 25.5386 1.72533 25.6428 1.70034 25.7497C1.6745 25.8574 1.65985 25.9659 1.65554 26.0771C1.65123 26.1874 1.65812 26.2968 1.67536 26.4062C1.69259 26.5148 1.72102 26.6208 1.75893 26.725C1.79771 26.8284 1.84596 26.9266 1.90368 27.0214C1.96141 27.1153 2.02776 27.2024 2.10272 27.2833C2.17854 27.3643 2.26039 27.4376 2.35 27.5022C2.4396 27.5668 2.53438 27.622 2.63433 27.6685C2.73514 27.7142 2.83939 27.7503 2.94623 27.7762C3.05393 27.8012 3.1625 27.8167 3.27278 27.8201C3.38307 27.8244 3.49335 27.8175 3.60192 27.8003C3.71134 27.7831 3.81732 27.7546 3.92071 27.7167C4.02497 27.678 4.12319 27.6297 4.21711 27.572C4.31188 27.5143 4.39891 27.4479 4.4799 27.373C4.56089 27.298 4.63413 27.2153 4.69875 27.1257C4.76337 27.0361 4.81851 26.9413 4.86504 26.8413L5.56639 25.3128L8.62338 26.7155L7.92203 28.244C7.87636 28.344 7.84018 28.4482 7.81433 28.5559C7.78934 28.6628 7.77383 28.7722 7.77038 28.8825C7.76608 28.9928 7.77211 29.1022 7.7902 29.2116C7.80743 29.3202 7.83501 29.427 7.87378 29.5304C7.91255 29.6338 7.95994 29.7329 8.01853 29.8268C8.07626 29.9207 8.1426 30.0078 8.21756 30.0887C8.29252 30.1697 8.37524 30.243 8.46484 30.3076C8.55359 30.3722 8.64923 30.4282 8.74917 30.4739C8.84998 30.5196 8.95338 30.5557 9.06108 30.5816C9.16878 30.6066 9.27734 30.6221 9.38763 30.6264C9.49791 30.6298 9.60734 30.6238 9.71676 30.6057C9.82619 30.5885 9.93216 30.5609 10.0356 30.5221C10.139 30.4834 10.238 30.436 10.332 30.3774C10.4259 30.3197 10.5138 30.2533 10.5947 30.1784C10.6757 30.1034 10.7481 30.0207 10.8127 29.9311C10.8782 29.8423 10.9334 29.7467 10.979 29.6467L11.6804 28.1182L14.7382 29.5209C14.9166 29.6037 15.0984 29.6778 15.2836 29.7441C15.468 29.8104 15.6558 29.869 15.8463 29.919C16.0367 29.969 16.2288 30.0103 16.4227 30.0439C16.6165 30.0767 16.8113 30.1017 17.0068 30.1172C17.2033 30.1335 17.3997 30.1404 17.5962 30.1396C17.7926 30.1379 17.9891 30.1284 18.1847 30.1094C18.3802 30.0913 18.575 30.0638 18.7688 30.0284C18.9618 29.9922 19.1531 29.9483 19.3427 29.8957C19.5322 29.8432 19.7192 29.7829 19.9036 29.7139C20.088 29.645 20.268 29.5683 20.4455 29.483C20.623 29.3986 20.7962 29.3064 20.9659 29.2065C21.1348 29.1056 21.2994 28.9988 21.4596 28.8842C21.6199 28.7696 21.7741 28.6481 21.9232 28.5206C22.0722 28.3922 22.2161 28.2578 22.3531 28.1174C22.4901 27.9761 22.6211 27.8296 22.746 27.678C22.8701 27.5255 22.9881 27.3678 23.0984 27.2058C23.2096 27.043 23.313 26.8758 23.4086 26.7043C23.5042 26.5329 23.593 26.3571 23.6731 26.1779C23.7541 25.9978 23.8265 25.816 23.8911 25.6299C23.9557 25.4438 24.0117 25.256 24.06 25.0647C24.1074 24.8743 24.147 24.6821 24.178 24.4874C24.209 24.2936 24.2314 24.098 24.2452 23.9024C24.259 23.7059 24.2642 23.5095 24.2607 23.313C24.2573 23.1166 24.2452 22.9202 24.2245 22.7246C24.2047 22.529 24.1754 22.3351 24.1375 22.1421C24.0996 21.9491 24.054 21.7578 23.9988 21.5691C23.9445 21.3796 23.8816 21.1935 23.811 21.01C23.7403 20.8273 23.6611 20.6472 23.5749 20.4706C23.4879 20.294 23.3931 20.1216 23.2914 19.9536C23.1898 19.7856 23.0803 19.6219 22.964 19.4634C22.8486 19.3048 22.7253 19.1515 22.5952 19.0033C22.466 18.8559 22.3299 18.7138 22.1877 18.5776ZM13.9826 6.96917L20.0974 9.77457C20.2982 9.86676 20.4877 9.97705 20.667 10.1072C20.8453 10.2364 21.0099 10.382 21.1607 10.544C21.3106 10.706 21.4433 10.8809 21.5596 11.0687C21.675 11.2574 21.7715 11.4547 21.8482 11.6615C21.9249 11.8691 21.9809 12.0811 22.0162 12.3C22.0507 12.5179 22.0645 12.7368 22.0559 12.9574C22.0473 13.1788 22.018 13.3959 21.9671 13.6113C21.9154 13.8259 21.8439 14.0335 21.7517 14.2343C21.6595 14.435 21.5493 14.6254 21.4191 14.8038C21.2899 14.983 21.1443 15.1476 20.9823 15.2975C20.8203 15.4483 20.6454 15.581 20.4576 15.6964C20.2689 15.8127 20.0716 15.9084 19.8648 15.9851C19.6572 16.0626 19.4452 16.1177 19.2263 16.1531C19.0084 16.1884 18.7895 16.2013 18.5681 16.1927C18.3475 16.1849 18.1304 16.1548 17.915 16.104C17.7004 16.0531 17.4928 15.9807 17.292 15.8894L11.1772 13.0832L13.9826 6.96917ZM16.1409 26.464L6.96909 22.255L9.77449 16.141L18.9463 20.3491C19.1471 20.4413 19.3366 20.5516 19.5159 20.6817C19.6951 20.8109 19.8596 20.9565 20.0096 21.1185C20.1595 21.2805 20.293 21.4554 20.4085 21.6432C20.5239 21.8319 20.6204 22.0292 20.6971 22.236C20.7738 22.4437 20.8298 22.6556 20.8651 22.8745C20.8996 23.0925 20.9134 23.3113 20.9048 23.5319C20.8961 23.7533 20.8669 23.9705 20.816 24.1859C20.7643 24.4004 20.6928 24.608 20.6006 24.8088C20.5084 25.0096 20.3981 25.2 20.268 25.3783C20.1388 25.5575 19.9932 25.7221 19.8312 25.872C19.6692 26.0228 19.4943 26.1555 19.3065 26.271C19.1178 26.3873 18.9205 26.4829 18.7137 26.5596C18.506 26.6371 18.2941 26.6923 18.0752 26.7276C17.8573 26.7629 17.6384 26.7759 17.4178 26.7672C17.1964 26.7595 16.9793 26.7293 16.7639 26.6785C16.5493 26.6277 16.3417 26.5553 16.1409 26.464Z" fill="white"/>
</svg>
