<svg width="112" height="109" viewBox="0 0 112 109" fill="none" xmlns="http://www.w3.org/2000/svg">
<path fill-rule="evenodd" clip-rule="evenodd" d="M44.6875 6.45763L33.479 12.9016L33.4755 24.0346L33.472 35.1677H35.1127H36.7535V24.9904V14.813L46.2913 9.34983C51.5372 6.34488 55.9426 3.88822 56.0813 3.8904C56.22 3.89257 60.5667 6.32316 65.7407 9.29183L75.1478 14.6896L75.2572 24.8742L75.3666 35.0591H77.0074H78.6482V23.9914V12.9237L67.3814 6.45502C61.1848 2.89722 56.0655 -0.00737178 56.0054 1.40545e-05C55.9452 0.00761712 50.8522 2.91351 44.6875 6.45763ZM54.8021 6.95856C54.2005 7.33046 53.6803 7.65826 53.6459 7.68715C53.6116 7.71604 53.9459 8.34384 54.3891 9.08242C54.9861 10.078 55.2854 10.3904 55.5453 10.2896C55.7382 10.2151 55.9474 10.1369 56.0104 10.1158C56.0732 10.0947 58.167 11.2406 60.6632 12.6622C63.1596 14.0835 65.232 15.2077 65.2688 15.1603C65.7943 14.4802 66.7286 12.683 66.6538 12.4962C66.5654 12.2757 56.9739 6.67399 56.2086 6.39593C56.0366 6.33337 55.4037 6.58666 54.8021 6.95856ZM50.0616 9.67568L48.8214 10.4312L49.6113 11.775C50.0458 12.514 50.4195 13.1472 50.4414 13.1822C50.5232 13.3117 53.1613 11.6788 53.1613 11.4987C53.1613 11.1272 51.7511 8.88322 51.5291 8.90125C51.4042 8.91146 50.7437 9.2599 50.0616 9.67568ZM45.6634 12.2307C44.9767 12.6174 44.356 12.9917 44.2847 13.0627C44.1243 13.222 45.5444 15.8281 45.7936 15.8316C45.9762 15.8342 47.7982 14.8406 48.2893 14.4704C48.4947 14.3155 48.4206 14.0288 47.9758 13.2587C46.878 11.3581 47.0659 11.4415 45.6634 12.2307ZM39.4637 16.4064C39.0101 17.2114 38.7316 17.9029 38.845 17.9424C38.9581 17.9821 42.4963 19.9939 46.7076 22.413L54.3646 26.8115L54.4217 35.8774L54.4788 44.9431H56.1171H57.7555L57.7568 35.8737L57.7584 26.8043L58.3585 26.4615C64.3475 23.0423 73.2003 17.9467 73.269 17.8794C73.3895 17.7614 72.9942 16.9203 72.3204 15.8602L71.7704 14.9952L64.1614 19.3594C59.9763 21.7596 56.397 23.7637 56.2071 23.813C56.017 23.8626 54.6879 23.2263 53.2537 22.3991C51.8192 21.5721 48.6765 19.7682 46.2701 18.3905C43.8636 17.0129 41.5332 15.6734 41.0913 15.414L40.2882 14.9424L39.4637 16.4064ZM66.6101 31.846C65.8912 32.2644 65.2653 32.6422 65.2191 32.6854C65.173 32.7286 65.8903 34.0826 66.8133 35.6945L68.4913 38.6251L67.8391 39.5192C66.9282 40.7679 66.572 42.4734 66.8991 44.0214C67.2152 45.5185 69.2438 49.1178 70.374 50.187C71.6241 51.3694 72.5254 51.7378 74.4445 51.8508C75.8155 51.9316 76.206 52.0341 76.4475 52.3765C76.7125 52.7521 76.6768 52.9078 76.1439 53.7059C75.3357 54.9163 75.0384 55.8602 75.0384 57.2166C75.0384 58.6483 75.2966 59.3709 76.6276 61.665C78.1354 64.264 78.5458 64.7443 79.8798 65.47C80.8496 65.9977 81.3408 66.1167 82.6954 66.1519L84.3362 66.1945L85.9183 68.8743C86.7884 70.348 87.5392 71.6516 87.5865 71.771C87.6593 71.9544 90.5712 70.6325 90.5712 70.4162C90.5712 70.3753 89.8243 69.0515 88.9116 67.4742C87.2865 64.6663 87.2596 64.5953 87.6121 64.0615C89.059 61.8701 89.3093 59.5486 88.3115 57.5757C85.7969 52.6046 84.1424 51.1748 80.9391 51.2047C79.5862 51.2173 79.4539 51.1769 79.227 50.6823C79.015 50.2207 79.0686 50.0263 79.614 49.2785C79.9623 48.8013 80.3659 47.9196 80.511 47.3193C80.9516 45.4953 80.6534 44.2232 79.1717 41.6055C77.0993 37.9448 75.9735 37.093 73.0109 36.9444L71.3114 36.8593L70.409 35.3074C69.9128 34.4539 69.1491 33.1548 68.712 32.4204L67.9172 31.0851L66.6101 31.846ZM42.4103 34.0809L40.8008 36.904L39.2576 36.9049C38.0539 36.9053 37.4746 37.0241 36.624 37.4451C35.1213 38.1887 34.3757 39.034 32.8902 41.6779L31.6124 43.9523V45.9332C31.6124 47.7994 31.6544 47.9812 32.3398 49.0761C32.9417 50.0373 33.0283 50.323 32.8415 50.7301C32.638 51.1737 32.4654 51.2217 31.0863 51.2173C29.3886 51.2119 28.1569 51.6381 26.955 52.6467C26.132 53.3375 23.9852 56.8423 23.4757 58.3268C22.8559 60.1331 23.3308 62.6619 24.536 63.9733C24.9539 64.428 24.9475 64.4447 23.3072 67.2476C22.4004 68.7974 21.6583 70.1709 21.6583 70.2999C21.6583 70.5319 23.8738 71.8796 24.2551 71.8796C24.3634 71.8796 25.1937 70.5845 26.1 69.0013L27.748 66.123L28.8441 66.1973C30.3641 66.3001 32.1024 65.7474 33.2048 64.8105C34.3503 63.8367 36.6446 59.8703 36.9743 58.2934C37.3105 56.6846 36.7642 54.5559 35.708 53.3599C35.438 53.0542 35.4208 52.8713 35.6203 52.4366C35.8504 51.9353 35.9819 51.8944 37.3702 51.8944C38.6067 51.8944 39.1073 51.7773 40.2101 51.2301C41.8213 50.4307 42.274 49.922 43.8804 47.1047C44.9353 45.2548 45.1346 44.7273 45.2313 43.5308C45.367 41.8525 45.0237 40.4755 44.1946 39.3713L43.5973 38.5758L45.2073 35.7942C46.0926 34.2642 46.817 32.918 46.817 32.8027C46.817 32.5783 44.617 31.2575 44.2434 31.2575C44.1204 31.2575 43.2956 32.5279 42.4103 34.0809ZM38.4665 40.9382C37.9469 41.8128 37.939 41.8006 39.6192 42.7353L40.8443 43.4168L41.2552 42.6593C41.7964 41.6611 42.004 41.7033 42.004 42.8112C42.004 44.0003 39.9559 47.6867 38.9793 48.2558C37.9539 48.8532 37.7478 48.7307 38.2781 47.8383C38.6542 47.2055 38.6925 47.0048 38.4639 46.8682C38.3053 46.7734 37.6669 46.402 37.0451 46.0427L35.9147 45.3893L35.4044 46.198L34.894 47.0067L34.8281 45.9929C34.7706 45.1082 34.9082 44.7239 35.9077 42.9782C36.6325 41.7124 37.2996 40.8285 37.7238 40.5717C38.7614 39.9433 38.9905 40.0562 38.4665 40.9382ZM74.5869 40.7288C75.3966 41.4052 77.4379 45.0447 77.4381 45.812C77.4381 46.1107 77.3513 46.4915 77.245 46.6583C77.0957 46.8921 76.97 46.8049 76.6956 46.2782C76.5 45.9023 76.2312 45.5947 76.0986 45.5947C75.6654 45.5947 73.5068 46.9233 73.514 47.1855C73.5178 47.3263 73.6654 47.6311 73.8422 47.8629C74.2992 48.4628 74.2401 48.6883 73.6711 48.5169C72.8352 48.2654 72.1977 47.5181 71.0846 45.4861C70.0666 43.6279 69.7324 42.313 70.204 42.0237C70.3125 41.957 70.6029 42.2416 70.849 42.6558L71.2968 43.4092L72.7195 42.6013L74.1423 41.7937L73.7153 41.0751C73.4803 40.6797 73.2883 40.313 73.2883 40.2602C73.2883 39.9791 73.9951 40.2342 74.5869 40.7288ZM47.8001 45.192C47.3668 45.9262 47.0913 46.5981 47.188 46.6848C47.5669 47.0248 55.8332 51.6772 56.0583 51.6772C56.3355 51.6772 64.2775 47.1866 64.7317 46.7732C64.9883 46.5397 64.9247 46.3001 64.3219 45.2311C63.9295 44.5351 63.577 43.9305 63.5387 43.8878C63.5005 43.845 61.8669 44.7247 59.9082 45.8428C57.9498 46.9609 56.2751 47.9067 56.1869 47.9445C56.0986 47.9825 54.3965 47.0782 52.4042 45.9352C50.412 44.7921 48.7384 43.8569 48.6851 43.8569C48.6317 43.8569 48.2335 44.4578 47.8001 45.192ZM30.2031 55.2889C29.9456 55.722 29.7638 56.0985 29.7986 56.1252C29.8336 56.1522 30.4717 56.5243 31.2164 56.9524L32.5708 57.7308L33.0488 56.9307C33.5172 56.1467 33.5308 56.1406 33.7178 56.6372C33.9926 57.3663 33.7629 58.0562 32.5223 60.2311C31.8312 61.4424 31.1727 62.3104 30.7515 62.5654C29.7139 63.1939 29.4849 63.0809 30.0088 62.199C30.5321 61.3185 30.529 61.3138 28.8581 60.3892L27.6351 59.7126L27.2295 60.4607C26.741 61.3616 26.4713 61.2701 26.4713 60.2037C26.4713 59.1289 28.5214 55.4472 29.4247 54.9003C30.4884 54.2562 30.7417 54.3826 30.2031 55.2889ZM82.7571 54.9372C83.362 55.4099 85.2598 58.5291 85.5469 59.5231C85.6442 59.8603 85.6523 60.4014 85.565 60.7257L85.4062 61.3155L84.905 60.5102L84.4038 59.705L83.7138 60.114C83.3342 60.3391 82.7105 60.7005 82.3277 60.9173L81.6318 61.3114L82.0684 62.1614L82.5053 63.0114L81.9986 62.8587C81.1736 62.61 80.548 61.8999 79.4023 59.9118C78.5849 58.4937 78.32 57.8142 78.32 57.1364C78.32 56.042 78.5574 55.997 79.096 56.99L79.5031 57.7408L80.7164 57.066C82.3489 56.158 82.3436 56.165 81.9483 55.406C81.7575 55.0397 81.6016 54.6863 81.6016 54.6207C81.6016 54.3546 82.2325 54.5275 82.7571 54.9372ZM9.68061 64.4543L0 70.0262V82.9862V95.9464L11.2321 102.378C17.41 105.915 22.5354 108.809 22.6222 108.809C22.9246 108.809 43.3166 97.0334 43.3166 96.859C43.3166 96.5592 41.9218 94.2544 41.7406 94.2544C41.6463 94.2544 37.5076 96.5851 32.5435 99.4334C27.5794 102.282 23.3057 104.724 23.0464 104.861C22.6286 105.081 21.4857 104.484 12.983 99.6052L3.39095 94.1015L3.33429 83.0142L3.27763 71.9272L12.2514 66.7799L21.2249 61.6327L20.4669 60.2967C20.0499 59.562 19.6305 58.9431 19.5349 58.9216C19.4393 58.9001 15.0051 61.3898 9.68061 64.4543ZM91.6823 60.3997C91.0256 61.586 90.9811 61.7643 91.2881 61.987C91.4782 62.1251 95.4782 64.4319 100.177 67.1132L108.721 71.9883L108.725 83.0755L108.729 94.1627L99.2909 99.585C94.0999 102.567 89.7177 105.039 89.5526 105.078C89.3876 105.117 85.0542 102.742 79.9231 99.8014C74.7919 96.8601 70.5254 94.5311 70.4423 94.6256C70.3591 94.7201 69.9789 95.3508 69.5974 96.0268L68.9034 97.2561L71.3694 98.6744C72.7256 99.4542 77.3301 102.097 81.6016 104.546L89.3679 109L90.8236 108.198C91.6243 107.758 96.7167 104.855 102.14 101.749L112 96.1008L111.951 83.0798L111.901 70.0586L102.295 64.5609C97.0122 61.5371 92.6294 59.063 92.5559 59.063C92.4823 59.063 92.0894 59.6646 91.6823 60.3997ZM35.5754 66.3679C35.1219 67.1508 34.783 67.8168 34.8224 67.8478C34.8618 67.8791 36.4938 68.8128 38.449 69.923L42.004 71.9416V75.6034V79.2655H43.6448H45.2856V74.7067V70.1479L44.4652 69.6265C44.0141 69.3396 42.3158 68.3479 40.6914 67.4225C39.067 66.4971 37.437 65.5608 37.069 65.3421L36.3998 64.9443L35.5754 66.3679ZM71.0415 67.6882L66.7162 70.1896L66.7755 74.5646L66.8345 78.9396L68.4151 79.0033L69.9958 79.0672L70.0559 75.5534L70.1161 72.04L73.6116 70.0188C75.5344 68.9071 77.1413 67.8963 77.1828 67.7727C77.2863 67.4644 75.8654 65.1405 75.5889 65.1661C75.4666 65.1774 73.4202 66.3122 71.0415 67.6882ZM6.03326 73.4539C5.34917 74.6537 5.29863 74.842 5.60097 75.0666C5.78912 75.2065 9.3308 77.2594 13.4715 79.6285L20.9998 83.9359L21.0009 93.0149L21.002 102.094L22.5881 102.03L24.1742 101.966L24.2313 92.9419L24.2884 83.9177L32.1479 79.4078L40.0077 74.8976L39.223 73.5517C38.7914 72.8111 38.4164 72.1775 38.3901 72.1434C38.3637 72.109 34.8257 74.0958 30.5282 76.5581C26.2306 79.0207 22.5763 80.9829 22.4076 80.9186C22.2389 80.8543 18.8756 78.9546 14.9335 76.6974C10.9917 74.4401 7.55066 72.4814 7.28726 72.3443C6.84337 72.1138 6.75105 72.1955 6.03326 73.4539ZM72.7774 73.6718L72.0078 75.0295L73.2498 75.7292C73.9328 76.1141 77.4449 78.1228 81.0546 80.1935L87.6178 83.9579L87.6749 93.0164L87.732 102.075H89.3703H91.0087V93.0796V84.0847L94.0168 82.3484C95.6714 81.3937 99.1907 79.3708 101.838 77.8535C104.485 76.3359 106.686 75.0612 106.729 75.0204C106.772 74.9797 106.441 74.3478 105.994 73.6162C105.448 72.7249 105.077 72.3254 104.868 72.4051C104.696 72.4707 101.2 74.4484 97.0995 76.7999C92.9986 79.1516 89.5324 81.0741 89.3964 81.0722C89.2605 81.0702 85.7131 79.0989 81.5136 76.6913C77.3143 74.284 73.8037 72.3141 73.7127 72.3141C73.6215 72.3141 73.2008 72.9252 72.7774 73.6718ZM5.46927 80.243V81.8722H7.11006H8.75084V80.243V78.6138H7.11006H5.46927V80.243ZM103.26 80.8947V82.5239H104.901H106.541V80.8947V79.2655H104.901H103.26V80.8947ZM46.9264 81.6394C44.4326 81.7956 43.4422 82.1712 42.2173 83.4244C41.7828 83.8688 41.2469 84.6302 41.0261 85.1162L40.6249 85.9996H37.1578H33.6907V87.6289V89.2581L37.1364 89.2585L40.582 89.2592L41.2129 90.4583C41.8819 91.7295 42.957 92.7177 44.3366 93.3296C45.0021 93.6246 45.8117 93.7011 48.239 93.6976C50.9638 93.6939 51.428 93.6377 52.4453 93.1891C53.7597 92.6091 55.1657 91.2045 55.5855 90.0514C55.8338 89.3697 55.9704 89.2581 56.5558 89.2581C57.1233 89.2581 57.3 89.3895 57.6149 90.0447C58.2941 91.4595 59.0881 92.2752 60.4366 92.9445C61.7194 93.581 61.8623 93.6027 64.7523 93.6027C68.4285 93.6027 69.4401 93.317 70.9006 91.8668C71.4611 91.3105 72.0502 90.4959 72.2104 90.0566L72.5011 89.2581H75.9575H79.4138V87.6289V85.9996H76.0266H72.6394L72.1058 84.9541C71.4957 83.7585 70.1769 82.4898 68.9724 81.9396C68.3128 81.6383 67.5105 81.561 64.975 81.5544C61.9325 81.5468 61.7516 81.5714 60.5505 82.157C59.1758 82.8274 57.9028 84.138 57.5263 85.2708C57.3254 85.8754 57.1756 85.9996 56.6483 85.9996C56.1104 85.9996 55.9312 85.841 55.4816 84.9678C54.4538 82.971 52.6509 81.796 50.3173 81.6022C49.6555 81.5473 48.1296 81.564 46.9264 81.6394ZM5.46927 85.6738V87.303H7.11006H8.75084V85.6738V84.0446H7.11006H5.46927V85.6738ZM67.6619 84.9884C68.0491 85.1492 68.5011 85.4424 68.6661 85.6401C68.9382 85.9657 68.8713 85.9996 67.9551 85.9996H66.9439V87.6169V89.2342L67.9831 89.3004L69.0222 89.3667L68.2565 89.8546C67.5702 90.2921 67.2145 90.3427 64.8231 90.3434C62.2976 90.3442 62.1226 90.3156 61.5416 89.8081L60.9277 89.2718L61.8575 89.265L62.7873 89.2581V87.6289V85.9996H61.9122C61.4309 85.9996 61.0371 85.9132 61.0371 85.8074C61.0371 85.5693 61.892 84.9999 62.4683 84.8546C63.4237 84.6137 66.9798 84.7054 67.6619 84.9884ZM103.26 86.3255V87.9547H104.901H106.541V86.3255V84.6962H104.901H103.26V86.3255ZM51.7818 85.4496L52.3956 85.9859L51.3565 85.9927L50.3173 85.9996V87.6289V89.2581H51.3504H52.3834L51.9303 89.708C51.3541 90.2804 50.1786 90.55 48.239 90.5552C46.409 90.5597 45.2738 90.2797 44.7376 89.6912C44.349 89.265 44.3573 89.2581 45.2517 89.2581H46.1607V87.6289V85.9996L45.2309 85.9927L44.3011 85.9859L44.915 85.4496C45.4998 84.9389 45.6621 84.9135 48.3484 84.9135C51.0347 84.9135 51.197 84.9389 51.7818 85.4496ZM5.47606 91.1589L5.48262 92.8424L11.4826 96.2473L17.4826 99.6524L18.2777 98.2403C18.7152 97.4638 19.0394 96.7997 18.9983 96.7647C18.9574 96.7297 16.6347 95.3966 13.8373 93.8021C8.82544 90.9455 8.75084 90.8925 8.75084 90.1891V89.4753H7.11006H5.46927L5.47606 91.1589ZM103.221 90.6036C103.167 90.9705 102.105 91.6806 98.6132 93.6855L94.0759 96.2907L94.7541 97.4992C95.1271 98.1639 95.5132 98.7939 95.6123 98.8994C95.7129 99.0067 98.1575 97.7312 101.167 96.0007L106.541 92.9104V91.5186V90.127H104.916C103.409 90.127 103.285 90.162 103.221 90.6036Z" fill="black"/>
</svg>
