<svg width="27" height="27" viewBox="0 0 27 27" fill="none" xmlns="http://www.w3.org/2000/svg">
<path d="M23.4018 9.15722H21.3669V5.08735C21.3669 4.41927 21.2353 3.75773 20.9796 3.1405C20.7239 2.52328 20.3492 1.96245 19.8768 1.49005C19.4044 1.01765 18.8436 0.642914 18.2264 0.387251C17.6091 0.131588 16.9476 0 16.2795 0H5.08735C3.7381 0 2.44411 0.535987 1.49005 1.49005C0.535987 2.44411 0 3.7381 0 5.08735V17.297C0 17.5668 0.107197 17.8256 0.29801 18.0164C0.488822 18.2072 0.74762 18.3144 1.01747 18.3144C1.28732 18.3144 1.54612 18.2072 1.73693 18.0164C1.92774 17.8256 2.03494 17.5668 2.03494 17.297V5.08735C2.03494 4.2778 2.35653 3.50141 2.92897 2.92897C3.50141 2.35653 4.2778 2.03494 5.08735 2.03494H16.2795C17.0891 2.03494 17.8654 2.35653 18.4379 2.92897C19.0103 3.50141 19.3319 4.2778 19.3319 5.08735V10.1747C19.3319 10.4445 19.4391 10.7033 19.6299 10.8942C19.8207 11.085 20.0795 11.1922 20.3494 11.1922H23.4018C23.6716 11.1922 23.9304 11.2994 24.1213 11.4902C24.3121 11.681 24.4193 11.9398 24.4193 12.2096V21.3669C24.4193 22.1764 24.0977 22.9528 23.5252 23.5252C22.9528 24.0977 22.1764 24.4193 21.3669 24.4193H5.08735C4.2778 24.4193 3.50141 24.0977 2.92897 23.5252C2.35653 22.9528 2.03494 22.1764 2.03494 21.3669C2.03494 21.097 1.92774 20.8382 1.73693 20.6474C1.54612 20.4566 1.28732 20.3494 1.01747 20.3494C0.74762 20.3494 0.488822 20.4566 0.29801 20.6474C0.107197 20.8382 0 21.097 0 21.3669C0 22.7161 0.535987 24.0101 1.49005 24.9641C2.44411 25.9182 3.7381 26.4542 5.08735 26.4542H21.3669C22.7161 26.4542 24.0101 25.9182 24.9641 24.9641C25.9182 24.0101 26.4542 22.7161 26.4542 21.3669V12.2096C26.4542 11.4001 26.1326 10.6237 25.5602 10.0513C24.9877 9.47881 24.2113 9.15722 23.4018 9.15722Z" fill="white"/>
<path d="M8.64865 11.1921H12.7185C13.3932 11.1921 14.0401 10.9241 14.5172 10.4471C14.9942 9.97003 15.2622 9.32303 15.2622 8.64841C15.2622 7.97379 14.9942 7.32679 14.5172 6.84976C14.0401 6.37273 13.3932 6.10474 12.7185 6.10474H8.64865C7.97403 6.10474 7.32704 6.37273 6.85 6.84976C6.37297 7.32679 6.10498 7.97379 6.10498 8.64841C6.10498 9.32303 6.37297 9.97003 6.85 10.4471C7.32704 10.9241 7.97403 11.1921 8.64865 11.1921ZM8.64865 8.13967H12.7185C12.8535 8.13967 12.9829 8.19327 13.0783 8.28868C13.1737 8.38409 13.2273 8.51348 13.2273 8.64841C13.2273 8.78333 13.1737 8.91273 13.0783 9.00814C12.9829 9.10355 12.8535 9.15714 12.7185 9.15714H8.64865C8.51373 9.15714 8.38433 9.10355 8.28892 9.00814C8.19352 8.91273 8.13992 8.78333 8.13992 8.64841C8.13992 8.51348 8.19352 8.38409 8.28892 8.28868C8.38433 8.19327 8.51373 8.13967 8.64865 8.13967ZM8.64865 20.3493H17.8059C18.4805 20.3493 19.1275 20.0813 19.6045 19.6043C20.0816 19.1272 20.3495 18.4803 20.3495 17.8056C20.3495 17.131 20.0816 16.484 19.6045 16.007C19.1275 15.53 18.4805 15.262 17.8059 15.262H8.64865C7.97403 15.262 7.32704 15.53 6.85 16.007C6.37297 16.484 6.10498 17.131 6.10498 17.8056C6.10498 18.4803 6.37297 19.1272 6.85 19.6043C7.32704 20.0813 7.97403 20.3493 8.64865 20.3493V20.3493ZM8.64865 17.2969H17.8059C17.9408 17.2969 18.0702 17.3505 18.1656 17.4459C18.261 17.5413 18.3146 17.6707 18.3146 17.8056C18.3146 17.9406 18.261 18.07 18.1656 18.1654C18.0702 18.2608 17.9408 18.3144 17.8059 18.3144H8.64865C8.51373 18.3144 8.38433 18.2608 8.28892 18.1654C8.19352 18.07 8.13992 17.9406 8.13992 17.8056C8.13992 17.6707 8.19352 17.5413 8.28892 17.4459C8.38433 17.3505 8.51373 17.2969 8.64865 17.2969Z" fill="white"/>
</svg>
