<svg width="29" height="27" viewBox="0 0 29 27" fill="none" xmlns="http://www.w3.org/2000/svg">
<path fill-rule="evenodd" clip-rule="evenodd" d="M25.2323 7.00008C26.7573 7.00006 28.1319 6.14603 28.7144 4.83671C29.2967 3.52739 28.972 2.02106 27.8918 1.02101C26.8117 0.0209677 25.1891 -0.275533 23.7816 0.269948C22.3742 0.815443 21.4596 2.09531 21.4648 3.512C21.4719 5.44033 23.1565 7.00009 25.2323 7.00008ZM25.2323 2.00009C26.1312 2.00009 26.8598 2.677 26.8598 3.512C26.8598 4.34699 26.1312 5.02389 25.2323 5.02389C24.3335 5.02389 23.6049 4.34699 23.6049 3.512C23.6049 2.677 24.3335 2.00009 25.2323 2.00009ZM2.14007 18.8928C2.14007 22.8452 4.48519 25.0119 8.72689 25.0119C9.31851 25.0183 9.79641 25.4624 9.80334 26.0119C9.79632 26.5595 9.31643 27 8.72689 27C3.34467 27 0 23.8928 0 18.8928V9.16673C0 4.15484 3.34467 1.04772 8.72689 1.04772H18.1587C18.7481 1.05424 19.2222 1.50004 19.2222 2.04771C19.2222 2.31185 19.1084 2.56499 18.9061 2.75064C18.704 2.93629 18.4301 3.03899 18.1457 3.0358H8.72689C4.48519 3.0358 2.14007 5.21436 2.14007 9.16673V18.8928ZM17.2104 16.2976C17.0308 16.5035 16.7748 16.6394 16.4926 16.6786C16.2119 16.7052 15.9312 16.6282 15.7109 16.4643L11.7768 13.5953L8.23992 17.8691C8.07127 18.0823 7.81765 18.2237 7.53584 18.2617C7.25404 18.2998 6.96757 18.2312 6.74059 18.0715C6.27737 17.7341 6.19174 17.1137 6.54838 16.6786L10.7388 11.6072C10.9136 11.397 11.1713 11.2599 11.455 11.2265C11.7388 11.193 12.0251 11.2658 12.2509 11.4287L16.1851 14.2977L19.645 10.1905C20.025 9.85507 20.6112 9.8266 21.0265 10.1234C21.4419 10.4203 21.5627 10.9539 21.3111 11.381L17.2104 16.2976ZM26.9112 9.16673C26.3238 9.16673 25.8474 9.60911 25.8474 10.1548V18.8928C25.809 22.8452 23.4639 25.0119 19.2222 25.0119H14.9421C14.3505 25.0183 13.8726 25.4624 13.8656 26.0119C13.8726 26.5595 14.3525 27 14.9421 27H19.2222C24.6045 27 27.962 23.8928 27.962 18.8928V10.1548C27.962 9.61373 27.4935 9.17325 26.9112 9.16673Z" fill="white"/>
</svg>
