<svg width="85" height="84" viewBox="0 0 85 84" fill="none" xmlns="http://www.w3.org/2000/svg">
<path d="M17 0C21.5087 0 25.8327 1.77 29.0208 4.92061C32.2089 8.07122 34 12.3444 34 16.8V25.2H51V16.8C51 12.3444 52.7911 8.07122 55.9792 4.92061C59.1673 1.77 63.4913 0 68 0C72.5087 0 76.8327 1.77 80.0208 4.92061C83.2089 8.07122 85 12.3444 85 16.8C85 21.2556 83.2089 25.5288 80.0208 28.6794C76.8327 31.83 72.5087 33.6 68 33.6H59.5V50.4H68C72.5087 50.4 76.8327 52.17 80.0208 55.3206C83.2089 58.4712 85 62.7444 85 67.2C85 71.6556 83.2089 75.9288 80.0208 79.0794C76.8327 82.23 72.5087 84 68 84C63.4913 84 59.1673 82.23 55.9792 79.0794C52.7911 75.9288 51 71.6556 51 67.2V58.8H34V67.2C34 71.6556 32.2089 75.9288 29.0208 79.0794C25.8327 82.23 21.5087 84 17 84C12.4913 84 8.1673 82.23 4.97919 79.0794C1.79107 75.9288 0 71.6556 0 67.2C0 62.7444 1.79107 58.4712 4.97919 55.3206C8.1673 52.17 12.4913 50.4 17 50.4H25.5V33.6H17C12.4913 33.6 8.1673 31.83 4.97919 28.6794C1.79107 25.5288 0 21.2556 0 16.8C0 12.3444 1.79107 8.07122 4.97919 4.92061C8.1673 1.77 12.4913 0 17 0ZM59.5 67.2C59.5 69.4278 60.3955 71.5644 61.9896 73.1397C63.5837 74.715 65.7457 75.6 68 75.6C70.2543 75.6 72.4163 74.715 74.0104 73.1397C75.6045 71.5644 76.5 69.4278 76.5 67.2C76.5 64.9722 75.6045 62.8356 74.0104 61.2603C72.4163 59.685 70.2543 58.8 68 58.8H59.5V67.2ZM51 33.6H34V50.4H51V33.6ZM17 58.8C14.7457 58.8 12.5837 59.685 10.9896 61.2603C9.39553 62.8356 8.5 64.9722 8.5 67.2C8.5 69.4278 9.39553 71.5644 10.9896 73.1397C12.5837 74.715 14.7457 75.6 17 75.6C19.2543 75.6 21.4163 74.715 23.0104 73.1397C24.6045 71.5644 25.5 69.4278 25.5 67.2V58.8H17ZM25.5 16.8C25.5 14.5722 24.6045 12.4356 23.0104 10.8603C21.4163 9.285 19.2543 8.4 17 8.4C14.7457 8.4 12.5837 9.285 10.9896 10.8603C9.39553 12.4356 8.5 14.5722 8.5 16.8C8.5 19.0278 9.39553 21.1644 10.9896 22.7397C12.5837 24.315 14.7457 25.2 17 25.2H25.5V16.8ZM68 25.2C70.2543 25.2 72.4163 24.315 74.0104 22.7397C75.6045 21.1644 76.5 19.0278 76.5 16.8C76.5 14.5722 75.6045 12.4356 74.0104 10.8603C72.4163 9.285 70.2543 8.4 68 8.4C65.7457 8.4 63.5837 9.285 61.9896 10.8603C60.3955 12.4356 59.5 14.5722 59.5 16.8V25.2H68Z" fill="black"/>
</svg>
