<svg width="108" height="108" viewBox="0 0 108 108" fill="none" xmlns="http://www.w3.org/2000/svg">
<path fill-rule="evenodd" clip-rule="evenodd" d="M51.4277 0.474718C49.8974 1.06313 48.2897 2.57918 47.5289 4.15092C46.7278 5.80621 46.7069 8.51061 47.483 10.0903C48.1954 11.5398 49.7278 13.0455 51.0391 13.585L52.0783 14.0123L52.079 17.4333L52.08 20.8543H51.1514C49.626 20.8543 46.2305 21.5282 43.7378 22.3257C41.0606 23.182 36.9401 25.1737 36.0936 26.0204C35.0184 27.0959 35.6366 29.0167 37.0582 29.0167C37.3762 29.0167 38.76 28.4403 40.1333 27.736C42.6888 26.4254 46.2754 25.154 48.84 24.6496C50.7 24.2837 57.3 24.2837 59.16 24.6496C61.7246 25.154 65.3112 26.4254 67.8667 27.736C69.24 28.4403 70.6238 29.0167 70.9418 29.0167C72.3634 29.0167 72.9816 27.0959 71.9064 26.0204C71.0599 25.1737 66.9394 23.182 64.2622 22.3257C61.7695 21.5282 58.374 20.8543 56.8486 20.8543H55.92L55.921 17.4333L55.9217 14.0123L56.9971 13.5699C58.5197 12.9438 60.2863 10.938 60.8254 9.2241C62.5802 3.64293 56.9122 -1.6343 51.4277 0.474718ZM56.105 4.2868C57.7354 5.49244 57.9629 7.90707 56.5934 9.46753C55.1525 11.1091 52.8475 11.1091 51.4066 9.46753C50.3894 8.30847 50.2111 6.99168 50.8836 5.60239C51.8462 3.6134 54.3437 2.98418 56.105 4.2868ZM14.327 8.60375C8.44896 10.901 8.12256 19.0283 13.8 21.721C15.282 22.4237 17.9376 22.5079 19.4563 21.9001L20.4422 21.5054L29.2486 30.3025C37.135 38.1807 38.1348 39.0997 38.8181 39.0997C39.7824 39.0997 40.56 38.3029 40.56 37.315C40.56 36.6702 39.4937 35.5142 31.7566 27.7729L22.9531 18.9645L23.4166 17.9355C24.0413 16.5482 24.012 13.9304 23.3554 12.449C21.8436 9.03876 17.7139 7.28 14.327 8.60375ZM90.2796 8.58863C88.7023 9.13335 87.037 10.682 86.2541 12.3318C85.5509 13.814 85.4666 16.4702 86.0746 17.9898L86.4691 18.976L77.6746 27.7849C68.1418 37.3335 68.207 37.248 69.4692 38.5103C70.7311 39.7729 70.6457 39.8382 80.1914 30.3025L88.9978 21.5054L89.9837 21.9001C90.5832 22.1401 91.6498 22.2938 92.7048 22.2923C94.9121 22.2895 96.4142 21.6226 97.962 19.9591C100.531 17.1976 100.419 12.9805 97.7054 10.2658C95.7384 8.29838 92.9458 7.66748 90.2796 8.58863ZM18.905 12.4492C20.671 13.7552 20.7898 16.2356 19.1611 17.7934C18.3194 18.5984 18.0874 18.6937 16.9699 18.6927C14.0645 18.6908 12.4157 16.1391 13.729 13.6774C14.7703 11.7261 17.1602 11.1588 18.905 12.4492ZM94.2286 12.1213C95.8798 12.9051 96.7114 15.1646 95.9153 16.7047C95.238 18.015 94.1921 18.6937 92.8498 18.6937C90.5717 18.6937 89.2826 17.4261 89.281 15.1851C89.279 12.6005 91.8648 10.9994 94.2286 12.1213ZM52.6738 35.2653C52.3426 35.6314 52.2067 36.2573 52.1266 37.786L52.0198 39.8199L49.23 39.8252C45.9751 39.8314 45.0094 40.1517 43.4743 41.7338C41.7089 43.5535 41.64 44.0137 41.64 53.9841C41.64 64.1285 41.6806 64.3799 43.6236 66.2892C45.2539 67.8914 46.0358 68.1483 49.2821 68.1483H52.0198L52.1266 70.1821C52.2535 72.6021 52.6195 73.1897 54 73.1897C55.3805 73.1897 55.7465 72.6021 55.8734 70.1821L55.9802 68.1483L58.77 68.143C62.0347 68.1367 62.9057 67.8402 64.4902 66.1958C65.5457 65.1001 66.0924 63.8944 66.3684 62.0541C66.5194 61.0474 66.473 60.9022 65.7802 60.2091C65.1737 59.6025 64.9013 59.4867 64.374 59.6116C63.4622 59.8272 62.965 60.503 62.7722 61.7878C62.6647 62.5059 62.3549 63.1749 61.879 63.717L61.1503 64.5472H54.0199H46.8898L46.2401 63.869C45.883 63.4959 45.4846 62.8213 45.3552 62.37C45.2239 61.9119 45.12 58.2084 45.12 53.9841C45.12 49.7598 45.2239 46.0562 45.3552 45.5982C45.4846 45.1468 45.883 44.4722 46.2401 44.0992L46.8898 43.421H54.0199H61.1503L61.879 44.2511C62.3549 44.7932 62.6647 45.4623 62.7722 46.1803C62.965 47.4652 63.4622 48.141 64.374 48.3566C64.9015 48.4817 65.1737 48.3655 65.783 47.7562C66.4651 47.0739 66.523 46.9034 66.3823 45.9912C66.0893 44.0915 65.4982 42.7363 64.5257 41.7338C62.9906 40.1517 62.0249 39.8314 58.77 39.8252L55.9802 39.8199L55.8734 37.786C55.7465 35.3661 55.3805 34.7784 54 34.7784C53.4151 34.7784 52.9649 34.9438 52.6738 35.2653ZM26.0446 36.0724C25.1981 36.9191 23.207 41.0409 22.351 43.7189C21.5537 46.2123 20.88 49.6088 20.88 51.1347V52.0635L17.46 52.0626L14.04 52.0618L13.6128 51.0223C13.0735 49.7106 11.5682 48.1777 10.1191 47.4652C8.53992 46.6888 5.83632 46.7097 4.18152 47.5111C1.72176 48.7023 0 51.3676 0 53.9841C0 58.6631 4.80744 62.2101 9.2532 60.8115C10.9666 60.2723 12.9718 58.5051 13.5977 56.9821L14.04 55.9063L17.46 55.9056L20.88 55.9047V56.8335C20.88 60.6578 23.5423 68.6346 25.8379 71.6893C26.5464 72.6321 27.7814 72.7682 28.56 71.9894C29.2879 71.2613 29.1557 70.5785 27.7596 67.8549C26.4494 65.2986 25.1784 61.711 24.6742 59.1456C24.5184 58.3534 24.391 56.0307 24.391 53.9841C24.391 51.9375 24.5184 49.6148 24.6742 48.8226C25.1784 46.2572 26.4494 42.6696 27.7596 40.1133C28.4638 38.7396 29.04 37.3553 29.04 37.0373C29.04 35.6153 27.1198 34.9969 26.0446 36.0724ZM79.44 35.9788C78.7121 36.7069 78.8443 37.3897 80.2404 40.1133C81.5506 42.6696 82.8216 46.2572 83.3258 48.8226C83.6916 50.6831 83.6916 57.2851 83.3258 59.1456C82.8216 61.711 81.5506 65.2986 80.2404 67.8549C78.8443 70.5785 78.7121 71.2613 79.44 71.9894C80.2186 72.7682 81.4536 72.6321 82.1621 71.6893C84.0202 69.2168 86.1701 63.5127 86.7941 59.3994C86.9954 58.0715 87.2071 56.742 87.2647 56.4448C87.367 55.9159 87.4378 55.9047 90.6646 55.9056L93.96 55.9063L94.4023 56.9821C95.0282 58.5051 97.0334 60.2723 98.7468 60.8115C103.193 62.2101 108 58.6631 108 53.9841C108 51.3676 106.278 48.7023 103.818 47.5111C102.164 46.7097 99.4601 46.6888 97.8809 47.4652C96.4318 48.1777 94.9265 49.7106 94.3872 51.0223L93.96 52.0618L90.54 52.0626L87.12 52.0635V51.1347C87.12 49.6088 86.4463 46.2123 85.649 43.7189C84.793 41.0409 82.8019 36.9191 81.9554 36.0724C81.2436 35.3604 80.1007 35.3179 79.44 35.9788ZM8.20032 50.6303C9.98904 51.1272 11.1478 53.2828 10.5691 55.0368C9.6312 57.8797 5.68944 58.3483 4.19328 55.7947C3.09888 53.9267 3.68904 51.8246 5.56944 50.8937C6.7404 50.3139 6.97656 50.2904 8.20032 50.6303ZM102.412 50.8884C104.307 51.8059 104.907 53.9171 103.807 55.7947C102.692 57.6968 100.202 58.0701 98.5152 56.5884C96.977 55.2377 96.8465 53.2365 98.1962 51.6989C99.3598 50.3734 100.783 50.0997 102.412 50.8884ZM36.48 69.2737C36.282 69.3438 32.6054 72.9041 28.3099 77.1857L20.5001 84.9705L19.5499 84.56C18.1346 83.9483 15.5448 84.004 14.04 84.6783C9.4176 86.7504 8.27616 92.7051 11.8339 96.1888C15.4272 99.707 21.2453 98.5755 23.3148 93.9559C23.989 92.4506 24.0446 89.86 23.4331 88.4443L23.0227 87.4939L30.8182 79.6817C35.9148 74.574 38.6681 71.643 38.7713 71.2152C38.8982 70.6889 38.7871 70.4191 38.203 69.8348C37.4878 69.1193 37.1904 69.0226 36.48 69.2737ZM72 69.2812C71.2181 69.5637 70.8 70.1617 70.8 70.9979C70.8 71.7995 71.2853 72.3387 78.6343 79.7024L86.4686 87.5525L86.0743 88.5384C85.4669 90.0571 85.5511 92.7137 86.2536 94.1959C88.4338 98.7954 94.9078 99.7156 98.0554 95.8733C100.394 93.0189 100.394 89.3712 98.0554 86.5168C96.7656 84.9422 94.9675 84.1492 92.6702 84.1415C91.3733 84.1372 90.6082 84.2587 90.0442 84.5585L89.2483 84.982L81.2842 77.1989C76.9039 72.9182 73.104 69.3563 72.84 69.2836C72.576 69.2108 72.198 69.2098 72 69.2812ZM36 79.4316C35.3393 80.0925 35.3818 81.2357 36.0936 81.9478C36.9401 82.7945 41.0606 84.7861 43.7378 85.6425C46.2305 86.44 49.626 87.1138 51.1514 87.1138H52.08L52.079 90.5349L52.0783 93.9559L51.0391 94.3832C49.7278 94.9226 48.1954 96.4284 47.483 97.8779C46.7069 99.4576 46.7278 102.162 47.5289 103.817C48.7198 106.278 51.3842 108 54 108C58.6776 108 62.2236 103.191 60.8254 98.7441C60.2863 97.0302 58.5197 95.0244 56.9971 94.3983L55.9217 93.9559L55.921 90.5349L55.92 87.1138H56.8486C58.374 87.1138 61.7695 86.44 64.2622 85.6425C66.9394 84.7861 71.0599 82.7945 71.9064 81.9478C72.9816 80.8722 72.3634 78.9514 70.9418 78.9514C70.6238 78.9514 69.24 79.5278 67.8667 80.2322C65.3112 81.5428 61.7246 82.8142 59.16 83.3186C58.368 83.4744 56.046 83.6019 54 83.6019C51.954 83.6019 49.632 83.4744 48.84 83.3186C46.2754 82.8142 42.6888 81.5428 40.1333 80.2322C37.4105 78.8357 36.7279 78.7034 36 79.4316ZM17.9244 87.8494C19.5305 88.4563 20.5894 90.2302 20.292 91.8161C20.0897 92.8943 18.9194 94.2127 17.8524 94.5652C15.4625 95.354 12.8417 93.0606 13.3058 90.5862C13.5847 89.0995 15.2693 87.6295 16.7244 87.6034C17.0129 87.5983 17.5529 87.709 17.9244 87.8494ZM94.3169 88.1402C96.9082 89.5107 96.8698 92.9296 94.2482 94.28C92.7065 95.0741 91.41 94.8437 90.18 93.5569C89.3542 92.6929 89.28 92.5018 89.28 91.2397C89.28 90.059 89.3842 89.7376 90.0151 88.972C91.17 87.5705 92.6858 87.2773 94.3169 88.1402ZM55.279 97.5243C58.651 98.9337 57.9821 103.931 54.3667 104.339C51.2784 104.687 49.3056 100.981 51.3106 98.5972C52.4004 97.3015 53.8248 96.9164 55.279 97.5243Z" fill="black"/>
</svg>
