<svg width="103" height="110" viewBox="0 0 103 110" fill="none" xmlns="http://www.w3.org/2000/svg">
<path fill-rule="evenodd" clip-rule="evenodd" d="M81.9773 0.262676C80.5858 0.629012 78.995 1.43267 77.9503 2.29742C77.4475 2.71366 75.3762 5.47441 73.1425 8.70561L69.2182 14.3826L38.1685 14.3878L7.11879 14.3927L5.82072 14.909C3.18566 15.9566 1.45579 17.6461 0.492309 20.1132L0 21.3738V50.629C0 77.643 0.0291424 79.9753 0.381078 81.073C1.15591 83.4902 3.31268 85.6973 5.89525 86.7156L7.11879 87.1981L25.4908 87.2601L43.8627 87.322L42.6818 92.1001C42.0325 94.7281 41.4498 97.0834 41.3869 97.3342C41.2779 97.7702 41.1155 97.7943 37.6548 97.8885C33.5644 98 32.7146 98.2316 31.0446 99.6905C29.7154 100.852 29.0189 102.298 28.8696 104.209L28.7468 105.779L24.7538 105.846L20.7608 105.913L20.2243 106.516C19.4966 107.335 19.4968 108.578 20.2247 109.396L20.7617 110H51.5H82.2383L82.7753 109.396C83.5032 108.578 83.5034 107.335 82.7757 106.516L82.2392 105.913L78.2462 105.846L74.2532 105.779L74.1304 104.209C73.9811 102.298 73.2846 100.852 71.9554 99.6905C70.2854 98.2316 69.4356 98 65.3452 97.8885C61.8845 97.7943 61.7221 97.7702 61.6131 97.3342C61.5502 97.0834 60.9675 94.7281 60.3182 92.1001L59.1373 87.322L77.5092 87.2601L95.8812 87.1981L97.1608 86.6984C99.7756 85.6775 102.045 83.2598 102.7 80.7983C102.945 79.8778 103 74.2843 103 50.5215V21.3738L102.508 20.1132C101.166 16.6783 97.8616 14.3826 94.2583 14.3826C92.6519 14.3826 92.7229 14.5706 93.5276 12.4466C94.4606 9.98403 93.9825 6.34239 92.4422 4.17772C91.6122 3.01116 90.0265 1.61423 88.9026 1.05988C86.8317 0.0383145 84.0471 -0.282203 81.9773 0.262676ZM86.8041 4.88436C87.8187 5.38493 88.7942 6.40714 89.2412 7.43839C89.6861 8.46533 89.6236 10.5866 89.1199 11.541C88.7075 12.3225 74.2214 29.5797 73.6646 29.9527C73.4704 30.0828 72.3779 29.4162 70.1715 27.8207C68.4058 26.5438 66.9785 25.4401 66.9998 25.3678C67.0212 25.2955 70.0929 20.8341 73.8261 15.4535C80.6719 5.5867 81.1642 4.98417 82.7889 4.48038C83.7537 4.18137 85.795 4.38681 86.8041 4.88436ZM61.0875 26.0748L55.9895 33.4648L54.2915 33.6135C46.8608 34.2646 42.012 38.9289 41.0334 46.3672C40.6421 49.3409 41.2076 54.7646 42.2669 58.1999C42.8649 60.1394 44.4159 60.7565 45.9611 59.67C49.2351 57.3679 49.4008 57.327 55.6156 57.2911C60.2261 57.2644 60.8752 57.2153 62.1782 56.7944C67.0759 55.212 70.0224 50.333 69.2471 45.0899C69.1203 44.232 69.0044 43.2774 68.99 42.9685C68.9691 42.5288 71.1425 39.8252 78.9741 30.5496L88.9849 18.6928L92.3392 18.7425C95.4748 18.7892 95.7442 18.8262 96.4747 19.3109C97.4885 19.9833 98.1372 20.9214 98.4222 22.1267C98.5703 22.7529 98.6531 30.3304 98.6567 43.5841L98.662 64.0735H63.6171C25.554 64.0735 27.5188 64.0114 26.6843 65.2429C26.2094 65.9439 26.3758 67.1944 27.0283 67.8251C27.4861 68.2678 27.5123 68.2682 63.0187 68.3758L98.5508 68.4833V74.0763V79.6692L97.933 80.6852C97.5325 81.344 96.9459 81.9113 96.2645 82.2985L95.2138 82.8959H51.5H7.78618L6.73549 82.2985C6.05409 81.9113 5.46745 81.344 5.06702 80.6852L4.44924 79.6692V74.0763V68.4833L8.17015 68.3758C11.5471 68.2781 11.9331 68.2274 12.3484 67.8251C13 67.194 13.1662 65.9435 12.6915 65.2429C12.0403 64.282 11.1267 64.0735 7.56461 64.0735H4.32556L4.3874 42.9388C4.45547 19.6546 4.35225 21.3183 5.81894 19.8876C7.103 18.635 5.34332 18.7025 36.9859 18.6933L66.1856 18.6849L61.0875 26.0748ZM67.649 31.3834L70.6587 33.5414L70.2558 34.0553C68.6997 36.0419 66.0328 39.099 65.8488 39.1074C65.7265 39.113 64.3959 38.2362 62.8918 37.1589L60.1573 35.2003L60.5393 34.6329C62.7203 31.3905 64.284 29.2254 64.4442 29.2254C64.5514 29.2254 65.9936 30.1964 67.649 31.3834ZM60.3685 40.6801C64.1434 43.3748 64.377 43.583 64.6497 44.4983C65.3919 46.9893 64.7401 49.6914 62.9995 51.3391C61.3682 52.8836 60.9566 52.972 55.2819 52.9966C50.1343 53.0187 48.5099 53.23 46.7618 54.104C46.4085 54.2808 46.0784 54.3855 46.0281 54.3369C45.7456 54.0635 45.4248 51.3641 45.4088 49.1233C45.3807 45.1899 46.1654 42.7966 48.1477 40.7698C49.8358 39.044 52.663 37.8933 55.3284 37.8477C56.3334 37.8305 56.5374 37.9452 60.3685 40.6801ZM18.8704 64.3891C16.6644 65.3115 17.2793 68.3758 19.6703 68.3758C21.8015 68.3758 22.7332 65.7166 20.9773 64.6451C20.1495 64.14 19.6203 64.0757 18.8704 64.3891ZM54.6145 87.3999C54.6145 87.4517 55.1651 89.7326 55.838 92.4684C56.511 95.2042 57.0616 97.5334 57.0616 97.6444C57.0616 97.7646 54.8147 97.8462 51.5 97.8462C48.1853 97.8462 45.9384 97.7646 45.9384 97.6444C45.9384 97.5334 46.489 95.2042 47.162 92.4684C47.8349 89.7326 48.3855 87.4517 48.3855 87.3999C48.3855 87.348 49.787 87.3057 51.5 87.3057C53.213 87.3057 54.6145 87.348 54.6145 87.3999ZM68.0294 102.378C69.089 102.662 69.7399 103.618 69.741 104.891L69.7419 105.805H51.4724H33.2029L33.3041 104.625C33.4185 103.293 33.8605 102.674 34.9086 102.38C35.9156 102.097 66.9767 102.095 68.0294 102.378Z" fill="black"/>
</svg>
