<svg width="96" height="96" viewBox="0 0 96 96" fill="none" xmlns="http://www.w3.org/2000/svg">
<path fill-rule="evenodd" clip-rule="evenodd" d="M2.54134 95.7271C1.59282 95.3915 0.476702 94.2116 0.214638 93.2671C-0.0755443 92.2221 -0.0695457 3.7766 0.220824 2.73094C0.492261 1.75278 1.7514 0.493385 2.72936 0.221893C3.79486 -0.0739746 92.2041 -0.0739746 93.2696 0.221893C94.2476 0.493385 95.5067 1.75278 95.7781 2.73094C96.074 3.79666 96.074 92.2239 95.7781 93.2896C95.5067 94.2678 94.2476 95.5272 93.2696 95.7987C92.7301 95.9485 80.0303 96.0048 47.9058 95.9997C9.93143 95.9935 3.17963 95.953 2.54134 95.7271ZM92.0517 87.1966V82.3218H47.9995H3.94727V87.1966V92.0715H47.9995H92.0517V87.1966ZM7.88385 87.1966V85.3217H11.2581H14.6323V87.1966V89.0716H11.2581H7.88385V87.1966ZM17.6316 87.1966V85.3217H21.0995H24.5675V87.1966V89.0716H21.0995H17.6316V87.1966ZM81.3667 87.1966V85.3217H84.7409H88.1151V87.1966V89.0716H84.7409H81.3667V87.1966ZM92.0517 41.1667V3.9491H47.9995H3.94727V41.1667V78.3844H47.9995H92.0517V41.1667ZM43.0814 73.3288C42.1012 73.0222 41.2447 72.3469 40.7363 71.4792C40.2784 70.6973 40.215 70.3724 40.1288 68.3621L40.0326 66.1178L39.3244 65.8489L38.6162 65.5798L37.1422 67.0145C35.5038 68.6092 34.7538 69.0115 33.4308 69.0055C31.9165 68.9986 31.2531 68.5273 27.7289 64.9547C25.0863 62.276 24.3813 61.4533 24.215 60.8537C23.6963 58.9825 24.0714 57.9955 26.0677 55.9788L27.5525 54.4789L27.2027 53.7017L26.8529 52.9247L24.5077 52.858C22.2531 52.794 22.1315 52.7697 21.3601 52.2272C20.8742 51.8856 20.3688 51.2958 20.0788 50.732C19.6021 49.8054 19.5999 49.7795 19.5999 45.0153C19.5999 40.7023 19.6345 40.1644 19.9498 39.573C20.9226 37.7491 21.8145 37.3231 24.6614 37.3231H26.8323L27.1798 36.5263L27.5274 35.7294L26.1501 34.3232C24.1342 32.2651 23.6047 30.7797 24.2932 29.1142C24.475 28.6744 25.8418 27.1521 27.9955 24.9903C31.0225 21.9521 31.5159 21.532 32.3463 21.2837C33.1027 21.0578 33.4778 21.0441 34.2936 21.2136C35.1936 21.4005 35.4836 21.5965 36.9448 23.0053L38.5852 24.587L39.3559 24.2787L40.1263 23.9703V22.1987C40.1263 20.0076 40.367 19.0094 41.1138 18.1034C42.1975 16.7883 42.5985 16.707 47.9995 16.707C53.4005 16.707 53.8014 16.7883 54.8851 18.1034C55.632 19.0094 55.8727 20.0076 55.8727 22.1987V23.9703L56.6431 24.2787L57.4137 24.587L59.0542 23.0053C60.5154 21.5965 60.8054 21.4005 61.7053 21.2136C62.5212 21.0441 62.8963 21.0578 63.6526 21.2837C64.4831 21.532 64.9765 21.9521 68.0035 24.9903C70.1572 27.1521 71.5239 28.6744 71.7058 29.1142C72.3943 30.7797 71.8647 32.2651 69.8488 34.3232L68.4716 35.7294L68.8191 36.5263L69.1667 37.3231H71.3376C74.1845 37.3231 75.0764 37.7491 76.0491 39.573C76.3644 40.1644 76.3991 40.7023 76.3991 45.0153C76.3991 49.7795 76.3969 49.8054 75.9202 50.732C75.6302 51.2958 75.1248 51.8856 74.6389 52.2272C73.8675 52.7697 73.7458 52.794 71.4913 52.858L69.1461 52.9247L68.7963 53.7017L68.4465 54.4789L69.9313 55.9788C71.9275 57.9955 72.3026 58.9825 71.7839 60.8537C71.6177 61.4533 70.9126 62.276 68.2701 64.9547C64.7459 68.5273 64.0825 68.9986 62.5682 69.0055C61.2451 69.0115 60.4951 68.6092 58.8568 67.0145L57.3828 65.5798L56.6746 65.8489L55.9664 66.1178L55.8702 68.3621C55.7836 70.3803 55.7217 70.6954 55.2559 71.4904C54.9196 72.0645 54.4275 72.5571 53.8524 72.8951L52.9671 73.4158L48.2807 73.4524C45.7031 73.4726 43.3635 73.4169 43.0814 73.3288ZM51.9361 66.8679C51.9361 64.2484 51.9509 64.1459 52.4103 63.5999C52.6934 63.2633 53.2786 62.9054 53.8631 62.7114C54.4013 62.5327 55.3478 62.1472 55.9664 61.8547C56.65 61.5313 57.4025 61.3226 57.8852 61.3226C58.6373 61.3224 58.784 61.4233 60.6616 63.232L62.6438 65.1417L65.3954 62.3896L68.1469 59.6376L66.2317 57.7144C63.884 55.3571 63.8285 55.188 64.73 53.1394C65.0865 52.3292 65.5191 51.2783 65.6914 50.8041C65.8637 50.3298 66.22 49.7392 66.4832 49.4917C66.9371 49.0646 67.1052 49.0383 69.7628 48.9811L72.5638 48.9206L72.5131 45.0438L72.4625 41.1667L69.6228 41.073C66.4478 40.9682 66.2039 40.8743 65.7876 39.5972C65.6656 39.223 65.2346 38.161 64.8297 37.237C63.8124 34.9157 63.8562 34.7589 66.1884 32.3742L68.0412 30.4796L65.2906 27.718L62.5399 24.9564L60.5465 26.9211C58.2168 29.2173 58.1336 29.2412 55.8963 28.257C55.1101 27.9113 54.0669 27.4827 53.5784 27.3049C52.0596 26.752 51.9361 26.4527 51.9361 23.3295V20.6361H47.9995H44.0629V23.3295C44.0629 26.4527 43.9394 26.752 42.4206 27.3049C41.9321 27.4827 40.8889 27.9113 40.1027 28.257C37.8654 29.2412 37.7822 29.2173 35.4525 26.9211L33.4591 24.9564L30.7083 27.718L27.9578 30.4796L29.8106 32.3742C32.1427 34.7589 32.1866 34.9157 31.1693 37.237C30.7644 38.161 30.3334 39.223 30.2114 39.5972C29.795 40.8743 29.5512 40.9682 26.3762 41.073L23.5364 41.1667L23.4858 45.0438L23.4352 48.9206L26.2362 48.9811C28.8938 49.0383 29.0619 49.0646 29.5157 49.4917C29.7789 49.7392 30.1353 50.3298 30.3076 50.8041C30.4798 51.2783 30.9125 52.3292 31.269 53.1394C32.1705 55.188 32.115 55.3571 29.7673 57.7144L27.8521 59.6376L30.6035 62.3896L33.3552 65.1417L35.3374 63.232C37.2149 61.4233 37.3617 61.3224 38.1138 61.3226C38.5965 61.3226 39.3489 61.5313 40.0326 61.8547C40.6512 62.1472 41.5977 62.5327 42.1359 62.7114C42.7203 62.9054 43.3056 63.2633 43.5886 63.5999C44.0481 64.1459 44.0629 64.2484 44.0629 66.8679V69.5722H47.9995H51.9361V66.8679ZM74.4308 64.6036V62.6349H76.3991H78.3674V64.6036V66.5722H76.3991H74.4308V64.6036ZM80.2823 64.6504L80.3357 62.7286L82.2571 62.6752L84.1785 62.6217V64.597V66.5722H82.2037H80.2288L80.2823 64.6504ZM86.2406 64.597V62.6217L88.162 62.6752L90.0834 62.7286L90.1368 64.6504L90.1903 66.5722H88.2154H86.2406V64.597ZM46.779 54.7383C43.7712 54.3829 40.9911 52.4991 39.4764 49.79C36.7718 44.9528 38.709 38.8051 43.7176 36.3298C50.1646 33.1435 57.7472 37.8858 57.7472 45.1041C57.7472 50.9161 52.6111 55.4274 46.779 54.7383ZM49.8832 50.6011C51.4667 50.1485 53.1845 48.3272 53.6466 46.611C53.9559 45.4617 53.781 43.5549 53.2758 42.573C52.1835 40.4494 50.3341 39.3034 47.9995 39.3034C46.2691 39.3034 45.0253 39.8033 43.9195 40.9433C42.6274 42.2752 42.2821 43.1529 42.2821 45.1041C42.2821 46.6243 42.3372 46.8911 42.8384 47.7964C44.2678 50.3774 46.9415 51.442 49.8832 50.6011ZM5.86213 25.4641L5.91556 23.5423L7.83698 23.4888L9.75841 23.4354V25.4107V27.3859H7.78356H5.80871L5.86213 25.4641ZM11.8204 25.4107V23.4354L13.7419 23.4888L15.6633 23.5423L15.7167 25.4641L15.7701 27.3859H13.7953H11.8204V25.4107ZM17.6316 25.4172V23.4485H19.5999H21.5682V25.4172V27.3859H19.5999H17.6316V25.4172ZM12.7577 9.85517V7.88648H47.9995H83.2413V9.85517V11.8239H47.9995H12.7577V9.85517Z" fill="black"/>
</svg>
