<svg width="29" height="28" viewBox="0 0 29 28" fill="none" xmlns="http://www.w3.org/2000/svg">
<path d="M12.6456 25.7664H6.68537C4.75409 25.7597 3.18823 24.2821 3.17404 22.4529V11.2236C3.17784 10.6112 3.46713 10.0318 3.96442 9.64043L5.01393 8.90408C5.39708 8.51742 5.43604 7.92741 5.10674 7.49855C4.77744 7.06968 4.17283 6.923 3.66641 7.14912L2.59098 7.91001C1.50617 8.70505 0.862412 9.92455 0.841797 11.2236V22.4651C0.848923 25.5192 3.46101 27.9932 6.68537 28H12.6456C13.2896 28 13.8117 27.5055 13.8117 26.8955C13.8117 26.2855 13.2896 25.791 12.6456 25.791V25.7664Z" fill="white"/>
<path d="M28.8417 11.1991C28.8281 9.90964 28.2052 8.69376 27.1443 7.88556L18.1911 1.12345C16.2236 -0.374482 13.4209 -0.374482 11.4535 1.12345L8.61591 3.07476C8.08279 3.43738 7.96097 4.14068 8.34381 4.64564C8.72665 5.15059 9.46918 5.26597 10.0023 4.90336L12.8787 2.86613C14.0077 1.98575 15.6368 1.98575 16.7658 2.86613L25.7191 9.62825C26.2344 10.0151 26.5388 10.6009 26.5483 11.2237V22.4652C26.5483 24.2952 24.982 25.7788 23.0499 25.7788H20.3938C20.1218 25.7788 19.9014 25.57 19.9014 25.3124V20.2439C19.9014 18.6288 18.5228 17.3176 16.8176 17.3108H12.9306C12.1093 17.3108 11.3216 17.6198 10.7409 18.1699C10.1601 18.7199 9.83386 19.466 9.83386 20.2439V22.183C9.83386 22.793 10.3559 23.2875 11 23.2875C11.644 23.2875 12.1661 22.793 12.1661 22.183V20.2439C12.1626 20.053 12.2403 19.8688 12.3816 19.7326C12.5229 19.5965 12.716 19.5198 12.9176 19.5198H16.8047C17.2197 19.5198 17.5562 19.8385 17.5562 20.2316V25.3124C17.5633 26.792 18.8317 27.9878 20.3938 27.9878H22.9851C26.2125 27.9878 28.8287 25.5098 28.8287 22.4529L28.8417 11.1991Z" fill="white"/>
</svg>
