<svg width="27" height="33" viewBox="0 0 27 33" fill="none" xmlns="http://www.w3.org/2000/svg">
<path fill-rule="evenodd" clip-rule="evenodd" d="M13.4999 0H13.5529C20.996 0.030393 27.0291 6.33925 26.9999 14.0618V14.2152C26.8994 19.734 23.7057 24.3137 21.0448 27.1831C20.2875 28.0035 19.4815 28.7907 18.6502 29.5258C18.1523 29.9671 17.4049 29.9064 16.9795 29.3898C16.5542 28.8717 16.6141 28.0962 17.112 27.6548C17.8818 26.9734 18.6307 26.2411 19.3351 25.4786C21.7031 22.9261 24.5426 18.8904 24.629 14.1704C24.6526 7.68639 19.6808 2.48447 13.5432 2.45843H13.4999C7.38312 2.45843 2.39456 7.6097 2.37086 13.9605C2.47544 17.0976 3.49632 20.0798 5.32466 22.5817C7.45843 25.5336 10.6954 28.659 13.7719 30.7398C14.3213 31.1103 14.4762 31.8714 14.1177 32.4415C13.8918 32.8032 13.5111 33 13.1233 33C12.9016 33 12.6784 32.9363 12.4777 32.8003C9.18358 30.5733 5.71655 27.225 3.43077 24.0634C1.30955 21.1593 0.122723 17.6938 0 14.046C0.0292871 6.24665 6.08054 0 13.4999 0ZM10.7289 14.2133C10.7289 15.795 11.9701 17.0841 13.4957 17.0841C15.0214 17.0841 16.2626 15.795 16.2626 14.2133C16.2626 12.6303 15.0214 11.3411 13.4957 11.3411C12.8417 11.3411 12.3103 10.7912 12.3103 10.1126C12.3103 9.43247 12.8417 8.88263 13.4957 8.88263C16.3282 8.88263 18.6335 11.273 18.6335 14.2133C18.6335 17.1521 16.3282 19.5426 13.4957 19.5426C10.6633 19.5426 8.35796 17.1521 8.35796 14.2133C8.35796 13.5333 8.88931 12.9834 9.54339 12.9834C10.1975 12.9834 10.7289 13.5333 10.7289 14.2133Z" fill="white"/>
</svg>
