<svg width="122" height="112" viewBox="0 0 122 112" fill="none" xmlns="http://www.w3.org/2000/svg">
<path fill-rule="evenodd" clip-rule="evenodd" d="M8.67578 0.210679C7.58616 0.64891 7.25714 2.49093 8.11573 3.34783C8.90198 4.13254 9.93015 4.07459 10.7164 3.20127C11.5784 2.24392 11.2868 0.759735 10.1341 0.235549C9.4538 -0.073748 9.38582 -0.0747139 8.67578 0.210679ZM79.3619 3.48377C67.581 5.07854 59.2845 9.89448 53.6504 18.4085C51.5425 21.5939 51.2172 22.4397 51.7736 23.2874C52.2806 24.0598 53.1791 24.4087 53.9286 24.1245C54.2823 23.9903 54.927 23.1711 55.6124 21.9853C57.6903 18.3896 60.753 15.0067 63.9999 12.7204C68.639 9.45384 75.6946 7.18832 82.4276 6.80393L85.1364 6.64917L84.5889 7.41673C83.799 8.52354 82.8851 8.90165 80.0459 9.29666C72.4964 10.3467 66.4697 13.6427 61.6791 19.3414C59.3167 22.1514 59.0862 23.2037 60.655 24.0135C61.6462 24.5251 62.5031 24.1559 63.4819 22.7958C63.8934 22.2239 64.9131 21.0562 65.748 20.2012C69.9209 15.9269 74.8607 13.5126 80.9354 12.7781C84.7617 12.3157 86.8763 11.0194 88.1798 8.33714C88.5775 7.51862 88.9709 6.30558 89.0541 5.6416C89.1809 4.62799 89.1211 4.32787 88.681 3.77037L88.157 3.10638L84.969 3.13125C83.2158 3.14501 80.6925 3.3034 79.3619 3.48377ZM91.9988 4.07073C91.1409 4.74413 91.1129 5.80192 91.931 6.61826C92.2576 6.94422 92.7352 7.21102 92.9926 7.21102C93.9402 7.21102 97.8117 8.47814 99.9551 9.48982C106.386 12.5251 111.28 17.5339 114.589 24.4679C115.714 26.8268 116.75 29.9464 117.095 32.0199L117.265 33.0461H106.269C95.511 33.0461 95.2594 33.057 94.6357 33.5466C94.1734 33.9095 93.9983 34.2695 93.9983 34.857C93.9983 35.4444 94.1734 35.8044 94.6357 36.1673C95.2597 36.6574 95.5086 36.6678 106.49 36.6678H117.707L117.705 37.5733C117.704 38.0714 117.634 39.0492 117.55 39.7463L117.397 41.0139H106.182C95.2884 41.0139 94.9519 41.0279 94.4821 41.4968C94.2133 41.7651 93.9983 42.3016 93.9983 42.7041C93.9983 43.1066 94.2133 43.6431 94.4821 43.9113C94.9517 44.38 95.2884 44.3942 105.852 44.3942H116.739V44.9068C116.739 45.9134 115.006 50.5656 113.697 53.0719C111.708 56.8805 109.481 59.8479 105.942 63.4057C104.192 65.1637 102.698 66.7671 102.62 66.969C102.377 67.6013 102.829 68.3708 106.329 73.2802L109.735 78.0568L109.064 78.4091C107.826 79.0591 87.715 88.8209 87.6142 88.8209C87.5595 88.8209 87.3797 88.2503 87.215 87.5533C86.4338 84.2481 83.9239 78.4852 82.1361 75.8915C81.7156 75.2818 81.4093 74.7528 81.4555 74.7159C81.5015 74.6792 82.1924 74.5244 82.9908 74.3723C85.2554 73.9408 86.0934 72.6981 85.0295 71.3484C84.4336 70.5922 83.7146 70.5415 81.1669 71.0763C77.796 71.784 69.4511 73.0356 64.2604 73.612C62.4532 73.8126 61.9401 73.8013 61.7843 73.5562C61.6764 73.3865 61.5864 72.0063 61.5843 70.4898L61.5806 67.732L60.5004 66.6991C59.9046 66.1292 58.979 65.5343 58.4356 65.3718C57.5546 65.1084 57.3816 65.1287 56.7942 65.5645C55.579 66.4658 55.9782 68.4295 57.4728 68.9028C57.8187 69.0124 57.9041 69.469 58.005 71.7528C58.1567 75.18 58.6831 76.5736 60.0406 77.1396C61.1256 77.592 63.5879 77.4042 71.8101 76.2411C74.7088 75.8314 77.2379 75.5561 77.4304 75.63C78.266 75.9499 81.5122 81.8051 82.7356 85.1991C83.5702 87.5139 84.3635 90.8126 84.1348 91.0169C84.0378 91.1035 83.1788 91.8368 82.2258 92.6466C81.2727 93.4565 79.8518 94.9097 79.0683 95.8763C77.0581 98.3557 69.4257 108.853 69.0761 109.619C68.4372 111.018 70.0876 112.514 71.4295 111.751C71.7721 111.556 74.1495 108.517 76.7124 104.998C81.9728 97.7753 84.2335 95.2705 87.2244 93.3509C89.0759 92.1628 113.489 80.113 113.991 80.1398C114.37 80.1601 117.106 82.8315 116.86 82.9404C116.727 82.999 111.294 85.7994 104.787 89.163C95.8412 93.787 92.8772 95.4277 92.6346 95.8898C92.1759 96.7634 92.605 97.8615 93.5597 98.2562C94.3793 98.595 94.4497 98.5631 105.248 92.9832C107.776 91.6767 112.417 89.282 115.561 87.6614C118.705 86.0408 121.39 84.5788 121.529 84.4125C121.667 84.2461 121.86 83.7939 121.957 83.4078C122.123 82.747 121.944 82.5251 118.892 79.6118C115.356 76.2373 114.664 75.7901 113.673 76.2406C113.329 76.3971 113.026 76.4939 112.999 76.4555C112.972 76.4174 111.565 74.4469 109.872 72.0766L106.794 67.767L109.066 65.4297C113.781 60.58 117.327 54.9233 119.236 49.2046C120.737 44.7066 120.97 43.15 120.967 37.6336C120.964 33.1132 120.908 32.4487 120.318 29.9736C118.356 21.7487 113.442 14.2495 106.83 9.3942C103.298 6.80031 97.4718 4.27161 93.7421 3.71338C92.8467 3.57938 92.5462 3.64095 91.9988 4.07073ZM3.76112 5.03797C3.04067 5.75701 3.11591 7.04925 3.91474 7.67629C4.80671 8.37649 5.60578 8.30454 6.46557 7.44643C7.05223 6.86092 7.16642 6.58542 7.04135 6.0581C6.70435 4.63572 4.76752 4.03355 3.76112 5.03797ZM12.2461 5.19129C11.4221 6.23653 11.6188 7.25013 12.7592 7.83879C14.1302 8.54647 15.6153 7.69464 15.6153 6.20079C15.6153 4.63258 13.2457 3.92272 12.2461 5.19129ZM38.7564 6.92828C38.521 7.18784 38.3561 7.77746 38.3561 8.35935C38.3561 9.14092 38.4901 9.45432 38.9935 9.84933C39.3441 10.1246 39.8192 10.3499 40.0495 10.3499C40.2798 10.3499 40.755 10.1246 41.1055 9.84933C41.6165 9.44829 41.743 9.1443 41.743 8.31734C41.743 7.62462 41.5976 7.15452 41.3005 6.88627C40.7027 6.34615 39.2625 6.37005 38.7564 6.92828ZM8.2258 9.25247C7.49108 9.98551 7.45455 11.0257 8.13339 11.8867C9.13761 13.1611 11.2607 12.2817 11.2607 10.5913C11.2607 9.66438 10.3172 8.65971 9.4463 8.65971C9.10156 8.65971 8.5524 8.92652 8.2258 9.25247ZM34.3534 11.4255C33.2496 12.527 33.8403 14.1054 35.453 14.363C36.6244 14.5499 37.6303 13.7668 37.6303 12.6683C37.6303 10.9994 35.565 10.2161 34.3534 11.4255ZM42.9947 11.3915C41.7652 12.698 42.8498 14.6496 44.646 14.363C46.2587 14.1054 46.8495 12.527 45.7456 11.4255C44.9601 10.6413 43.7154 10.6258 42.9947 11.3915ZM20.8825 12.4625C20.2416 13.1905 6.34098 36.9839 6.23575 37.5329C6.10632 38.2092 5.79569 37.6447 13.6741 51.0553C17.4123 57.4177 20.7542 62.8759 21.1009 63.1845C21.8035 63.8096 22.6964 63.7495 23.3835 63.031C24.0173 62.3682 37.9387 38.6026 38.058 37.9799C38.1393 37.5547 36.3239 34.2804 30.9435 25.1485C26.9705 18.4053 23.5293 12.6972 23.2964 12.464C22.7474 11.9142 21.3661 11.9132 20.8825 12.4625ZM38.9935 15.4379C37.6731 16.4745 38.4037 18.8006 40.0495 18.8006C41.6953 18.8006 42.4259 16.4745 41.1055 15.4379C40.755 15.1627 40.2798 14.9374 40.0495 14.9374C39.8192 14.9374 39.3441 15.1627 38.9935 15.4379ZM22.9586 27.4928C23.8431 31.9415 24.5667 35.6629 24.5665 35.7624C24.5665 35.8619 22.5575 35.9435 20.1023 35.9435C17.2996 35.9435 15.4148 36.0449 15.0383 36.2163C13.8108 36.7743 13.7017 38.6892 14.862 39.309C15.152 39.4641 17.1656 39.5652 19.954 39.5652C22.7049 39.5652 24.5665 39.6577 24.5665 39.7946C24.5665 40.2208 21.4057 55.618 21.2279 56.0574C21.0954 56.3851 19.6874 54.1753 15.5493 47.1448L10.0468 37.7964L15.5495 28.4281C18.576 23.2754 21.1193 19.1372 21.2013 19.2321C21.2833 19.3267 22.0742 23.0441 22.9586 27.4928ZM29.6268 29.9855C31.5007 33.1492 33.0338 35.7839 33.0338 35.8406C33.0338 35.8971 31.9693 35.9435 30.668 35.9435H28.3022L27.2368 30.5712C25.9048 23.856 25.9246 23.9671 26.0857 24.1125C26.1593 24.1789 27.7528 26.8218 29.6268 29.9855ZM52.6295 27.0482C51.4288 27.3942 50.285 28.3316 49.7242 29.4287C49.2789 30.2998 49.2426 30.8573 49.2426 36.8112C49.2426 41.0492 49.3398 43.5757 49.5271 44.1994C49.9282 45.5353 51.4506 47.1711 52.7558 47.6687L53.841 48.0823L52.7848 49.3166C51.0072 51.3941 50.4522 52.3516 50.4522 53.3401C50.4522 54.7478 51.4025 55.4234 54.5044 56.2209C55.07 56.3662 55.5326 56.5693 55.5326 56.6721C55.5326 56.775 55.206 57.8234 54.8068 59.0019C53.9618 61.4973 53.9064 62.3286 54.5433 62.9643C55.039 63.459 55.9104 63.5805 60.7924 63.8355C63.4611 63.9745 63.5238 63.9658 64.1189 63.3719C64.8773 62.6149 64.8952 61.6844 64.1658 60.9564C63.6757 60.4672 63.2753 60.3765 60.9412 60.2255L58.2767 60.0532L58.8399 58.1119C59.4795 55.9077 59.518 55.4427 59.122 54.7002C58.6979 53.9059 58.2298 53.6209 56.4272 53.0605C54.5862 52.4881 54.6024 52.6721 56.2322 50.8571L56.8249 50.197L58.0677 51.3702C60.6231 53.7822 61.2044 53.8723 73.4542 53.7535C84.182 53.6494 84.2923 53.6337 86.9881 51.8371C88.8753 50.5792 90.4406 48.5054 91.0925 46.398C91.5316 44.9797 91.579 44.1564 91.579 37.9627C91.579 32.3036 91.513 30.9414 91.2033 30.2013C90.7267 29.0627 89.79 28.0754 88.555 27.4102C87.5919 26.8915 87.5046 26.8889 70.5318 26.8466C59.6278 26.8194 53.1709 26.892 52.6295 27.0482ZM78.7656 30.7567C79.1563 30.9583 79.5386 31.3728 79.6152 31.6778C79.6919 31.9827 79.7207 35.1044 79.6794 38.6151L79.6039 44.9978L78.9541 46.2268C78.1942 47.6644 76.9263 48.8473 75.3826 49.559C74.3868 50.0183 73.7595 50.0743 68.8151 50.1472C65.4671 50.1965 62.9806 50.1286 62.3988 49.9724C61.6968 49.7836 60.9613 49.2133 59.5785 47.7844C57.675 45.8178 56.7156 45.1755 54.8508 44.6195C52.8905 44.0349 52.8714 43.9613 52.8714 37.0457C52.8714 32.6419 52.9512 30.8899 53.1617 30.6799C53.3799 30.4621 56.5082 30.3901 65.7538 30.3901C76.2808 30.3901 78.1579 30.443 78.7656 30.7567ZM87.3923 30.9725L88.0712 31.5549L88.144 37.3777C88.2253 43.8973 88.0245 45.3086 86.752 47.1545C85.8968 48.3948 84.1302 49.5827 82.6279 49.9273C80.6637 50.378 80.5776 50.3264 81.353 49.1628C83.2112 46.3731 83.4103 45.1335 83.3121 36.9694L83.2327 30.3897L84.9731 30.3899C86.4636 30.3901 86.8112 30.4737 87.3923 30.9725ZM33.0338 39.6932C33.0338 39.8694 25.935 51.877 25.8697 51.8113C25.8407 51.7821 26.3794 49.0151 27.0667 45.6623L28.3163 39.5659L30.675 39.5657C31.9724 39.5655 33.0338 39.6227 33.0338 39.6932ZM3.72531 60.8927C0.899658 61.9464 -0.59494 64.8182 0.222516 67.624C0.572578 68.8262 1.4002 69.885 8.22846 77.8666C14.697 85.4275 16.073 86.911 17.3627 87.7138C18.1979 88.2337 23.1386 90.815 28.3422 93.4499L37.803 98.2408L40.1577 104.698C41.5903 108.626 42.7037 111.32 43.0012 111.577C43.27 111.81 43.755 112 44.079 112C44.8072 112 45.8557 110.995 45.8557 110.296C45.8557 109.832 41.2686 97.0091 40.7509 96.026C40.635 95.8058 36.0435 93.3442 30.5482 90.5559C25.0527 87.7679 20.05 85.1774 19.4314 84.7995C18.6311 84.3108 16.2119 81.6675 11.0478 75.6389C7.05562 70.9785 3.71927 66.8871 3.63363 66.5469C3.26808 65.0929 4.8338 63.7852 6.27808 64.3384C6.48662 64.4183 8.97237 67.0504 11.8017 70.1878C18.9454 78.109 18.7908 77.9557 19.6443 77.9557C20.5426 77.9557 21.4215 77.0823 21.4215 76.1902C21.4215 75.8002 21.1026 75.1821 20.62 74.6365C13.6079 66.7102 8.8923 61.6911 8.05791 61.2662C6.81588 60.6338 4.86985 60.466 3.72531 60.8927ZM25.86 72.4161C25.307 72.6894 24.5457 73.3585 24.1666 73.9044C23.5777 74.7523 23.4778 75.1297 23.4778 76.507C23.4778 77.8675 23.5801 78.2652 24.1375 79.0678C24.5004 79.5905 25.0992 80.1956 25.4681 80.4126C26.1878 80.8361 35.5679 83.7504 36.2112 83.7504C36.4236 83.7504 36.8842 83.5252 37.2347 83.2499C38.0128 82.6393 38.1066 81.3811 37.4203 80.7613C37.1718 80.5367 34.8866 79.7192 32.3421 78.9441C29.7973 78.1693 27.5513 77.3991 27.3505 77.233C26.6221 76.6296 27.0813 75.539 28.0622 75.5433C28.3351 75.5445 31.1659 76.3411 34.353 77.3136C40.8987 79.3109 41.0745 79.4123 43.5008 82.5874C44.2432 83.559 48.782 90.3843 53.5865 97.7545C58.3914 105.125 62.5488 111.345 62.8251 111.577C63.5363 112.175 64.4039 112.102 65.1248 111.382C65.5673 110.941 65.7151 110.579 65.6423 110.115C65.5235 109.355 48.4534 83.1118 46.196 80.2178C44.4697 78.0044 42.7203 76.3599 41.5758 75.8741C39.6303 75.0486 28.7931 71.9194 27.8796 71.9197C27.3215 71.9197 26.4126 72.1432 25.86 72.4161ZM11.0609 96.3816C9.45066 98.0925 11.6502 100.697 13.4661 99.229C14.2659 98.5827 14.2659 96.9263 13.4661 96.28C12.698 95.6592 11.7015 95.7012 11.0609 96.3816ZM7.26053 100.394C5.35611 101.184 5.89875 103.791 7.96767 103.791C9.15986 103.791 9.80919 103.203 9.80919 102.124C9.80919 100.763 8.5045 99.8771 7.26053 100.394ZM15.7121 100.52C13.8667 101.307 14.5538 103.791 16.6169 103.791C18.1853 103.791 19.0789 102.071 18.095 100.945C17.5248 100.294 16.6205 100.132 15.7121 100.52ZM11.0188 104.998C10.0124 106.002 10.6158 107.935 12.0409 108.272C12.5727 108.398 12.847 108.281 13.4603 107.669C14.0977 107.033 14.1957 106.788 14.0682 106.151C13.9845 105.733 13.7373 105.195 13.5186 104.954C12.9798 104.359 11.6347 104.383 11.0188 104.998Z" fill="black"/>
</svg>
