<svg width="28" height="28" viewBox="0 0 28 28" fill="none" xmlns="http://www.w3.org/2000/svg">
<path fill-rule="evenodd" clip-rule="evenodd" d="M12.4404 0.0793068C7.6907 0.61615 3.45391 3.6291 1.40486 7.92727C-0.45807 11.8349 -0.468575 16.1407 1.3754 20.0158C3.78618 25.0821 8.95249 28.2125 14.5337 27.9888C20.675 27.7426 25.7995 23.6896 27.5012 17.7331C27.7342 16.9174 27.9147 15.8483 27.9767 14.9156C28.0212 14.2467 28.0123 14.1764 27.8583 13.9828C27.7326 13.8247 27.6253 13.7734 27.4206 13.7734C27.1799 13.7734 27.0585 13.8612 26.3409 14.5547C25.8962 14.9845 25.2866 15.4995 24.9863 15.6992C20.549 18.6502 14.6635 17.281 11.9616 12.6692C10.6553 10.4396 10.3968 7.60988 11.2708 5.10667C11.7326 3.78398 12.3982 2.74395 13.5338 1.57059C14.1528 0.930946 14.2515 0.793727 14.2454 0.580665C14.2407 0.414053 14.1733 0.277291 14.0393 0.161927C13.8174 -0.0289757 13.5299 -0.0438245 12.4404 0.0793068Z" fill="#525252"/>
</svg>
