<svg width="123" height="123" viewBox="0 0 123 123" fill="none" xmlns="http://www.w3.org/2000/svg">
<path fill-rule="evenodd" clip-rule="evenodd" d="M59.1027 0.500959C56.9935 1.38768 55.5774 3.8094 55.5774 6.53064C55.5774 8.41573 56.015 9.32084 57.5516 10.6115C59.3948 12.159 59.5258 12.5708 59.5258 16.8113V21.3539L51.4644 25.6174L43.4031 29.8802L43.2122 23.9445C43.1069 20.6794 42.7009 17.6225 42.3087 17.1515C41.8513 16.6011 39.9982 16.295 37.1211 16.295C33.0266 16.295 32.4784 16.1275 30.672 14.3246C28.5761 12.2326 26.4683 11.8536 23.7642 13.0832C18.7952 15.3433 19.8955 23.3192 25.341 24.5133C27.5245 24.9914 30.8589 23.4663 31.9085 21.5083C32.5034 20.3996 33.1615 20.2019 35.7122 20.3661L38.7966 20.5644V26.4049V32.2454L32.8746 35.4146L26.9526 38.5838L23.9683 35.6498C21.536 33.2589 20.5404 32.7157 18.5892 32.7157C16.8058 32.7157 15.6904 32.2126 14.2203 30.7452C12.1243 28.6533 10.0165 28.2743 7.31248 29.5038C2.34339 31.764 3.44368 39.7398 8.88922 40.934C10.9299 41.3813 14.6092 39.8272 15.21 38.2646C15.4239 37.7096 16.4498 37.3135 17.6751 37.3135C19.238 37.3135 20.3969 37.95 22.2112 39.8042L24.648 42.2949V50.9703V59.6457H18.3536C12.1684 59.6457 12.0308 59.6115 10.3988 57.6752C9.08203 56.1133 8.21141 55.7047 6.20034 55.7047C2.43223 55.7047 0 58.0233 0 61.6162C0 67.1749 6.24904 69.5723 10.2718 65.5571C12.1862 63.6464 12.4342 63.5866 18.447 63.5866H24.648V72.3205V81.0543L22.1526 83.4865C19.4914 86.0804 15.9299 86.8403 15.21 84.9677C14.6092 83.4051 10.9299 81.8511 8.88922 82.2983C3.44368 83.4925 2.34339 91.4683 7.31248 93.7285C10.0165 94.958 12.1243 94.5791 14.2203 92.4871C15.6904 91.0197 16.8058 90.5166 18.5892 90.5166C20.5404 90.5166 21.536 89.9734 23.9683 87.5825L26.9526 84.6485L32.8746 87.8157L38.7966 90.9829L38.9867 96.6612L39.1769 102.339H35.6023C33.0891 102.339 31.9191 102.057 31.6618 101.388C31.0609 99.8258 27.3817 98.2718 25.341 98.719C19.8955 99.9132 18.7952 107.889 23.7642 110.149C26.4683 111.379 28.5761 111 30.672 108.908C32.4784 107.105 33.0266 106.937 37.1211 106.937C39.9982 106.937 41.8513 106.631 42.3087 106.081C42.7009 105.61 43.1069 102.553 43.2122 99.2879L43.4031 93.3521L51.4644 97.6149L59.5258 101.878V106.421C59.5258 110.661 59.3948 111.073 57.5516 112.621C55.9867 113.935 55.5774 114.804 55.5774 116.811C55.5774 120.572 57.9004 123 61.5 123C67.0693 123 69.4712 116.763 65.4484 112.748C63.6433 110.946 63.4742 110.395 63.4742 106.328V101.878L71.5356 97.6149L79.5969 93.3521L79.7878 99.2879C79.8931 102.553 80.2991 105.61 80.6913 106.081C81.1487 106.631 83.0018 106.937 85.8789 106.937C89.9734 106.937 90.5216 107.105 92.328 108.908C94.9004 111.475 97.6083 111.523 100.381 109.05C104.67 105.225 102.11 98.7565 96.308 98.7565C94.1818 98.7565 93.2769 99.1388 92.0621 100.548C90.7572 102.062 89.9997 102.339 87.1707 102.339H83.8231L84.0133 96.6612L84.2034 90.9829L90.1254 87.8157L96.0474 84.6485L99.0318 87.5825C101.464 89.9734 102.46 90.5166 104.411 90.5166C106.194 90.5166 107.31 91.0197 108.78 92.4871C111.352 95.0546 114.06 95.1026 116.833 92.6289C121.122 88.8042 118.562 82.3358 112.76 82.3358C110.634 82.3358 109.729 82.7181 108.514 84.1276C106.264 86.7378 103.809 86.5158 100.789 83.4281L98.352 80.9374V72.262V63.5866H104.553C110.566 63.5866 110.814 63.6464 112.728 65.5571C116.751 69.5723 123 67.1749 123 61.6162C123 58.0233 120.568 55.7047 116.8 55.7047C114.789 55.7047 113.918 56.1133 112.601 57.6752C110.969 59.6115 110.832 59.6457 104.646 59.6457H98.352V50.9118V42.178L100.847 39.7458C103.509 37.1519 107.07 36.392 107.79 38.2646C108.391 39.8272 112.07 41.3813 114.111 40.934C119.556 39.7398 120.657 31.764 115.688 29.5038C112.984 28.2743 110.876 28.6533 108.78 30.7452C107.31 32.2126 106.194 32.7157 104.411 32.7157C102.46 32.7157 101.464 33.2589 99.0318 35.6498L96.0474 38.5838L90.1254 35.4166L84.2034 32.2494L84.0133 26.5711L83.8231 20.8928H87.3977C89.9109 20.8928 91.0809 21.1753 91.3382 21.8439C91.9391 23.4065 95.6183 24.9606 97.659 24.5133C103.105 23.3192 104.205 15.3433 99.2358 13.0832C96.5317 11.8536 94.4239 12.2326 92.328 14.3246C90.5216 16.1275 89.9734 16.295 85.8789 16.295C83.0018 16.295 81.1487 16.6011 80.6913 17.1515C80.2991 17.6225 79.8931 20.6794 79.7878 23.9445L79.5969 29.8802L71.5356 25.6174L63.4742 21.3539V16.9046C63.4742 12.8368 63.6433 12.2864 65.4484 10.4847C70.1648 5.77726 65.1859 -2.05673 59.1027 0.500959ZM63.2557 5.50861C63.4749 6.07808 63.1695 7.02851 62.5773 7.61966C61.5796 8.61475 61.4204 8.61475 60.4227 7.61966C59.8305 7.02851 59.5251 6.07808 59.7443 5.50861C60.2602 4.16606 62.7398 4.16606 63.2557 5.50861ZM27.9312 17.2717C29.1038 18.682 28.2358 20.3693 26.4676 20.1178C24.781 19.878 24.0735 17.719 25.4061 16.8763C26.6394 16.096 27.0006 16.1525 27.9312 17.2717ZM97.5939 16.8763C98.9265 17.719 98.219 19.878 96.5324 20.1178C94.7642 20.3693 93.8962 18.682 95.0688 17.2717C95.9994 16.1525 96.3606 16.096 97.5939 16.8763ZM78.1788 33.701L94.3838 42.2397L94.3812 61.6162L94.3785 80.9926L77.9393 89.6482L61.5 98.3046L45.0607 89.6482L28.6215 80.9926L28.6208 61.6162V42.2397L44.8956 33.5998C53.8473 28.8483 61.3513 25.0059 61.5724 25.0611C61.7928 25.1169 69.2659 29.0047 78.1788 33.701ZM46.0353 36.1142C38.0727 40.1123 31.34 43.7176 31.0741 44.1255C30.8082 44.5334 30.5865 52.4567 30.5805 61.7337C30.5727 75.1126 30.7563 78.7791 31.467 79.4681C31.9599 79.9449 38.919 83.5818 46.9316 87.549L61.5 94.7623L76.0684 87.549C84.081 83.5818 91.0401 79.9449 91.533 79.4681C92.2438 78.7791 92.4274 75.1126 92.4195 61.7337C92.4135 52.4567 92.1918 44.5334 91.9259 44.1255C91.3257 43.2053 62.4825 28.7616 61.3414 28.8102C60.8854 28.8293 53.998 32.116 46.0353 36.1142ZM11.4794 33.6924C12.6521 35.1026 11.7841 36.79 10.0158 36.5385C8.3292 36.2987 7.62178 34.1397 8.95437 33.297C10.1876 32.5167 10.5489 32.5732 11.4794 33.6924ZM114.046 33.297C115.378 34.1397 114.671 36.2987 112.984 36.5385C111.216 36.79 110.348 35.1026 111.521 33.6924C112.451 32.5732 112.812 32.5167 114.046 33.297ZM75.3261 39.9441L88.4809 46.5157V61.6214V76.7271L74.9905 83.4504L61.5 90.1731L48.0096 83.4504L34.5191 76.7271V61.6214V46.5157L47.516 39.9789C54.664 36.3841 60.886 33.4271 61.3421 33.4074C61.7975 33.3883 68.0906 36.3296 75.3261 39.9441ZM39.9482 51.545C39.3401 51.7874 39.1256 54.5112 39.1256 61.9991V72.1254H41.0998H43.074L43.1063 67.3634L43.1385 62.6014L45.3944 66.987C47.8681 71.7963 48.3715 72.3238 49.9245 71.7287C50.8182 71.3865 50.9709 69.8534 50.9709 61.2175V51.1069H48.9967H47.0224L47.0014 55.8689L46.981 60.6309L44.5336 56.0706C42.0889 51.5135 41.4947 50.9276 39.9482 51.545ZM56.4 51.5417C55.7919 51.7867 55.5774 54.5132 55.5774 61.9991V72.1254H57.5516H59.5258V67.856V63.5866H62.4871C65.3385 63.5866 65.4484 63.5137 65.4484 61.6162C65.4484 59.7186 65.3385 59.6457 62.4871 59.6457C59.6357 59.6457 59.5258 59.5728 59.5258 57.6752V55.7047H63.4742H67.4226V53.4058V51.1069L62.3226 51.1588C59.5172 51.187 56.8527 51.3598 56.4 51.5417ZM72.0291 53.4058C72.0291 55.5221 72.1858 55.7047 74.0033 55.7047H75.9776V63.9151V72.1254H77.9518H79.926V63.9151V55.7047H81.9002C83.7178 55.7047 83.8744 55.5221 83.8744 53.4058V51.1069H77.9518H72.0291V53.4058ZM7.5382 60.6309C8.19166 61.4171 8.19166 61.8152 7.5382 62.6014C5.89368 64.5791 3.54963 63.0658 4.48607 60.6309C4.69402 60.089 5.28168 59.6457 5.79168 59.6457C6.30169 59.6457 7.08742 60.089 7.5382 60.6309ZM118.634 61.4618C118.904 63.3502 117.043 64.1325 115.632 62.7242C114.758 61.852 114.729 61.5117 115.458 60.6355C116.642 59.2115 118.376 59.6627 118.634 61.4618ZM11.9262 87.6121C12.4546 88.9855 10.6983 90.6775 9.30051 90.1422C8.20022 89.7205 7.80143 87.8453 8.6352 87.0137C9.45516 86.1947 11.5261 86.5717 11.9262 87.6121ZM114.674 88.2985C114.927 90.0706 112.953 90.9205 111.636 89.6062C110.295 88.2683 111.149 86.4324 112.991 86.6938C113.915 86.8245 114.55 87.4308 114.674 88.2985ZM28.378 104.033C28.9064 105.406 27.15 107.098 25.7523 106.563C24.652 106.141 24.2532 104.266 25.087 103.434C25.9069 102.615 27.9779 102.992 28.378 104.033ZM98.2223 104.719C98.4757 106.491 96.5008 107.341 95.184 106.027C93.8429 104.689 94.697 102.853 96.5396 103.115C97.4629 103.245 98.0979 103.851 98.2223 104.719ZM62.8089 115.796C63.9026 117.111 63.1741 118.76 61.5 118.76C60.7531 118.76 59.9706 118.313 59.7607 117.766C59.3823 116.783 60.5412 114.819 61.5 114.819C61.7731 114.819 62.3627 115.259 62.8089 115.796Z" fill="black"/>
</svg>
