<svg width="33" height="25" viewBox="0 0 33 25" fill="none" xmlns="http://www.w3.org/2000/svg">
<path fill-rule="evenodd" clip-rule="evenodd" d="M11.7249 6.75403C11.7249 7.31913 11.2596 7.77778 10.6864 7.77778C10.1131 7.77778 9.64782 7.31913 9.64782 6.75403C9.64782 3.02894 12.7219 0 16.5008 0C20.2782 0 23.3523 3.02894 23.3523 6.75403C23.3523 10.4791 20.2782 13.5081 16.5008 13.5081C14.9541 13.5081 13.4959 13.0181 12.2857 12.0899C11.8329 11.7431 11.7512 11.1001 12.1029 10.6538C12.4533 10.2062 13.1082 10.1269 13.5611 10.475C14.4029 11.1193 15.4193 11.4606 16.5008 11.4606C19.1345 11.4606 21.2753 9.3489 21.2753 6.75403C21.2753 4.15916 19.1345 2.0475 16.5008 2.0475C13.8671 2.0475 11.7249 4.15916 11.7249 6.75403ZM9.03106 11.0076C9.03106 11.5728 8.56579 12.0313 7.99252 12.0313C5.00291 12.0313 2.56997 9.63441 2.56997 6.68741C2.56997 3.74038 5.00291 1.34207 7.99252 1.34207C8.56579 1.34207 9.03106 1.80071 9.03106 2.36582C9.03106 2.93093 8.56579 3.38957 7.99252 3.38957C6.14807 3.38957 4.64705 4.86923 4.64705 6.68741C4.64705 8.5056 6.14807 9.98382 7.99252 9.98382C8.56579 9.98382 9.03106 10.4425 9.03106 11.0076ZM6.04672 16.7235C5.37928 16.7672 4.70908 16.8641 4.0541 17.0088C3.0488 17.2041 2.35782 17.5371 2.1792 17.9057C2.04488 18.1854 2.04488 18.509 2.1792 18.7888C2.26505 18.9649 2.61401 19.4031 4.0361 19.691C4.5983 19.8044 4.95971 20.345 4.84478 20.8991C4.74508 21.3837 4.31166 21.7168 3.82839 21.7168C3.75917 21.7168 3.68993 21.71 3.61931 21.6963C1.90088 21.3496 0.786181 20.6671 0.30429 19.6679C-0.10143 18.8284 -0.10143 17.866 0.30429 17.0266C0.791716 16.0179 1.90917 15.3368 3.62622 15.0037C4.35875 14.8426 5.13557 14.7321 5.90686 14.6816C6.46075 14.6393 6.97448 15.0693 7.01324 15.6329C7.05202 16.1981 6.61999 16.6868 6.04672 16.7235ZM25.025 10.0172C24.4517 10.0172 23.9864 10.4759 23.9864 11.0409C23.9864 11.606 24.4517 12.0647 25.025 12.0647C28.0076 12.0647 30.435 9.67191 30.435 6.73165C30.435 3.79006 28.0076 1.39857 25.025 1.39857C24.4517 1.39857 23.9864 1.85585 23.9864 2.42234C23.9864 2.98744 24.4517 3.44609 25.025 3.44609C26.8625 3.44609 28.358 4.92028 28.358 6.73165C28.358 8.543 26.8625 10.0172 25.025 10.0172ZM29.4042 15.0288C31.095 15.3591 32.2097 16.0375 32.6957 17.0409C33.1014 17.8803 33.1014 18.8412 32.6957 19.6807C32.2152 20.6759 31.1033 21.3569 29.3876 21.705C29.3184 21.72 29.2478 21.7269 29.1771 21.7269C28.6953 21.7269 28.2633 21.3925 28.1622 20.9093C28.0472 20.355 28.4087 19.8131 28.9709 19.6999C30.3875 19.4118 30.7364 18.975 30.8208 18.8003C30.9551 18.5219 30.9551 18.201 30.8208 17.9226C30.6435 17.5554 29.9553 17.2237 28.9778 17.0326C28.2978 16.8851 27.6276 16.7882 26.9658 16.7446C26.3925 16.7078 25.9605 16.2176 25.9992 15.654C26.0366 15.0903 26.5365 14.6725 27.1043 14.7025C27.8727 14.7531 28.6454 14.8637 29.4042 15.0288ZM16.5003 15.6265C13.9995 15.6265 6.39055 15.6265 6.39055 20.3262C6.39055 21.3869 6.81427 22.8556 8.83318 23.8316C9.45354 24.1291 10.204 24.3721 11.0653 24.5537C11.6234 24.6765 12.1773 24.3188 12.2964 23.766C12.4168 23.2132 12.0582 22.6685 11.4974 22.5512C10.8022 22.4051 10.2124 22.2168 9.7471 21.9915C8.61301 21.4441 8.46761 20.8149 8.46761 20.3262C8.46761 18.134 12.8364 17.674 16.5003 17.674C21.8315 17.674 24.5331 18.5572 24.5331 20.3016C24.5331 22.4925 20.1644 22.9525 16.5003 22.9525C15.927 22.9525 15.4619 23.4112 15.4619 23.9762C15.4619 24.5413 15.927 25 16.5003 25C19.0011 25 26.6102 25 26.6102 20.3016C26.6102 15.6265 19.2657 15.6265 16.5003 15.6265Z" fill="white"/>
</svg>
