<svg width="112" height="86" viewBox="0 0 112 86" fill="none" xmlns="http://www.w3.org/2000/svg">
<path fill-rule="evenodd" clip-rule="evenodd" d="M35.84 16.5965V33.193H32.1067H28.3733L28.3703 25.0833C28.3681 18.3225 28.121 16.5648 26.8837 14.5151C24.6841 10.8699 21.2531 9.05867 16.5394 9.05565C13.0667 9.05263 12.273 8.75767 10.4533 6.78947C6.57216 2.59207 0 4.96311 0 10.5614C0 16.1597 6.57216 18.5307 10.4533 14.3333C12.1975 12.4466 13.1227 12.0702 16.0167 12.0702C20.2459 12.0702 23.305 13.5593 24.4944 16.1982C24.9954 17.3086 25.3867 21.4698 25.3867 25.6846V33.193H18.9661C12.7949 33.193 12.4649 33.1047 10.4533 30.9298C6.57216 26.7324 0 29.1035 0 34.7018C0 40.3001 6.57216 42.6711 10.4533 38.4737C12.4649 36.2988 12.7949 36.2105 18.9661 36.2105H25.3867V44.5465C25.3867 56.4386 23.7492 58.8421 15.6449 58.8421C12.8068 58.8421 11.9467 58.5705 11.9467 57.6766C11.9467 55.55 8.46421 52.807 5.76427 52.807C0.51744 52.807 -1.94581 59.208 1.83307 63.0252C4.08053 65.2966 7.31136 65.4339 9.91051 63.3684C11.3157 62.2519 12.9427 61.8589 16.1713 61.8566C21.2755 61.8536 24.6198 60.1495 26.8837 56.3971C28.1419 54.3128 28.3681 52.5882 28.3703 45.0746L28.3733 36.2105H32.1067H35.84V50.5439V64.8772H53.0133H70.1867V73.2335C70.1867 81.4639 70.2195 81.623 72.3692 83.7949C74.3023 85.748 75.0699 86 79.0892 86C83.1286 86 83.6267 85.8348 83.6267 84.4912C83.6267 83.168 83.1286 82.9825 79.573 82.9825C73.1711 82.9825 73.1733 82.9892 73.1733 66.386C73.1733 54.4591 73.363 51.9689 74.3463 50.9746C75.3387 49.9728 77.9311 49.7895 91.0933 49.7895C108.863 49.7895 109.013 49.837 109.013 55.5009C109.013 58.3389 109.238 58.8421 110.507 58.8421C111.795 58.8421 112 58.3389 112 55.172C112 52.6441 111.536 50.9045 110.507 49.5835C109.605 48.4248 109.012 46.5177 109.009 44.7668C108.998 37.1135 103.775 29.7402 97.0652 27.9085C92.7636 26.7347 86.5036 27.3835 83.213 29.3456L80.64 30.8793V15.4393V0H58.24H35.84V16.5965ZM77.6533 5.2807V7.54386H58.24H38.8267V5.2807V3.01754H58.24H77.6533V5.2807ZM8.18347 8.63923C10.1674 11.054 7.25387 14.7633 4.66667 13.1173C2.08171 11.4719 3.00235 7.54386 5.97333 7.54386C6.69387 7.54386 7.68843 8.03647 8.18347 8.63923ZM77.6533 22.2921C77.6533 31.5198 77.401 34.5154 76.4706 36.3327C75.8203 37.6039 75.099 40.4962 74.8675 42.7609C74.542 45.9451 73.9641 47.3656 72.3169 49.0298C70.3756 50.9912 70.1867 51.6558 70.1867 56.5209V61.8596H54.5067H38.8267V36.2105V10.5614H58.24H77.6533V22.2921ZM43.3067 21.1228V24.1404H46.2933H49.28V21.1228V18.1053H46.2933H43.3067V21.1228ZM55.2533 21.1228C55.2533 22.5478 55.7514 22.6316 64.2133 22.6316C72.6753 22.6316 73.1733 22.5478 73.1733 21.1228C73.1733 19.6978 72.6753 19.614 64.2133 19.614C55.7514 19.614 55.2533 19.6978 55.2533 21.1228ZM43.3067 31.6842V34.7018H46.2933H49.28V31.6842V28.6667H46.2933H43.3067V31.6842ZM55.2533 31.6842C55.2533 33.1092 55.7514 33.193 64.2133 33.193C72.6753 33.193 73.1733 33.1092 73.1733 31.6842C73.1733 30.2592 72.6753 30.1754 64.2133 30.1754C55.7514 30.1754 55.2533 30.2592 55.2533 31.6842ZM98.3733 31.7755C102.569 33.8274 105.388 38.0618 105.859 43.0189L106.216 46.7719H103.881C101.746 46.7719 101.547 46.563 101.544 44.3202C101.542 42.9721 100.885 40.7814 100.083 39.4536C95.3 31.5265 83.3519 34.105 82.3282 43.2852C81.9616 46.5682 81.8085 46.7719 79.7014 46.7719C77.4674 46.7719 77.4637 46.7651 77.8206 43.0189C78.7771 32.9584 89.1692 27.2741 98.3733 31.7755ZM8.18347 32.7796C10.1674 35.1944 7.25387 38.9037 4.66667 37.2576C2.08171 35.6123 3.00235 31.6842 5.97333 31.6842C6.69387 31.6842 7.68843 32.1768 8.18347 32.7796ZM95.0828 38.5567C97.1182 39.4936 98.56 42.1332 98.56 44.9214C98.56 46.7485 98.4756 46.7719 91.84 46.7719C85.2044 46.7719 85.12 46.7485 85.12 44.9214C85.12 39.3495 90.0137 36.2234 95.0828 38.5567ZM43.3067 42.2456V45.2632H46.2933H49.28V42.2456V39.2281H46.2933H43.3067V42.2456ZM55.2533 42.2456C55.2533 43.6706 55.7514 43.7544 64.2133 43.7544C72.6753 43.7544 73.1733 43.6706 73.1733 42.2456C73.1733 40.8206 72.6753 40.7368 64.2133 40.7368C55.7514 40.7368 55.2533 40.8206 55.2533 42.2456ZM8.18347 56.9199C10.1674 59.3347 7.25387 63.044 4.66667 61.398C2.08171 59.7526 3.00235 55.8246 5.97333 55.8246C6.69387 55.8246 7.68843 56.3172 8.18347 56.9199ZM93.3333 64.5C91.1523 67.6118 89.2476 70.1579 89.0997 70.1579C88.9526 70.1579 87.8834 69.0852 86.7246 67.774C85.4978 66.3867 84.2539 65.6172 83.7484 65.9326C82.4029 66.773 82.653 67.4097 85.9996 71.6561L89.1184 75.6136L90.6662 73.4832C91.5167 72.3109 94.1621 68.5375 96.544 65.0975C100.618 59.214 100.769 58.8421 99.0871 58.8421C97.7125 58.8421 96.3827 60.1495 93.3333 64.5ZM109.013 66.386C109.013 68.9003 109.262 69.4035 110.507 69.4035C111.751 69.4035 112 68.9003 112 66.386C112 63.8716 111.751 63.3684 110.507 63.3684C109.262 63.3684 109.013 63.8716 109.013 66.386ZM109.013 76.5166C109.013 82.1979 108.055 82.9825 101.12 82.9825C96.0714 82.9825 95.5733 83.1175 95.5733 84.4912C95.5733 85.8755 96.0714 86 101.604 86C107.274 86 107.766 85.868 109.817 83.7949C111.751 81.8418 112 81.0663 112 77.0055C112 72.9242 111.836 72.4211 110.507 72.4211C109.197 72.4211 109.013 72.9242 109.013 76.5166ZM86.6133 84.4912C86.6133 85.7488 87.1114 86 89.6 86C92.0886 86 92.5867 85.7488 92.5867 84.4912C92.5867 83.2337 92.0886 82.9825 89.6 82.9825C87.1114 82.9825 86.6133 83.2337 86.6133 84.4912Z" fill="black"/>
</svg>
