<svg width="76" height="126" viewBox="0 0 76 126" fill="none" xmlns="http://www.w3.org/2000/svg">
<path fill-rule="evenodd" clip-rule="evenodd" d="M36.2009 1.31541C35.6878 2.06085 27.3167 16.0237 17.5986 32.3441C5.94406 51.9167 -0.0170701 62.3785 0.086818 63.0766C0.298008 64.5005 37.1271 86.3853 38.5459 85.9301C39.0546 85.767 47.6549 80.8105 57.6569 74.9155C71.9203 66.5092 75.8769 63.9644 75.9993 63.1175C76.1827 61.8488 39.9389 0.726155 38.7239 0.255143C37.4768 -0.228186 37.1783 -0.103043 36.2009 1.31541ZM35.7292 44.8668C35.3454 45.2545 7.56091 58.098 7.10536 58.098C6.96733 58.098 13.3777 47.1681 21.3512 33.8088L35.8487 9.51969L35.977 27.0033C36.0472 36.6196 35.936 44.6579 35.7292 44.8668ZM68.9954 58.0083C68.9252 58.0945 62.426 55.2054 54.553 51.5881L40.2384 45.0111L40.1101 27.0536L39.9823 9.09598L54.553 33.4738C62.567 46.8819 69.0661 57.9221 68.9954 58.0083ZM35.9829 72.8151L35.8487 80.6351L21.1347 71.9529C13.0421 67.1783 6.56885 63.1146 6.7498 62.9229C6.93075 62.7312 13.5523 59.6027 21.4639 55.9705L35.8487 49.366L35.9829 57.1811C36.0565 61.4788 36.0565 68.5144 35.9829 72.8151ZM56.2323 56.6199C63.6508 60.0072 69.7216 62.8894 69.7236 63.0249C69.725 63.1604 63.9697 66.656 56.9336 70.7931C49.897 74.9303 43.2077 78.8782 42.0674 79.5665L39.9945 80.8174V65.0474V49.2773L41.3694 49.8691C42.1254 50.1947 48.8138 53.2327 56.2323 56.6199ZM0.825253 70.9833C0.371169 71.2395 0 71.9061 0 72.4643C0 73.5453 36.3979 125.55 37.4402 125.958C37.7787 126.091 38.4162 125.898 38.8566 125.529C39.7648 124.767 75.4877 74.239 75.9174 73.1078C76.2758 72.1643 75.2472 70.9079 74.1166 70.9079C73.6348 70.9079 65.3227 75.7057 55.645 81.5697L38.0494 92.2321L20.6591 81.6929C11.0946 75.8969 2.90497 71.0109 2.45966 70.8355C2.01436 70.6601 1.27885 70.7266 0.825253 70.9833ZM53.4473 98.7903L39.9945 117.887V106.782V95.677L53.2854 87.5461C60.5956 83.0744 66.6494 79.4783 66.7381 79.5546C66.8274 79.631 60.8468 88.2871 53.4473 98.7903ZM22.9632 87.7284L36.0926 95.6809V106.771V117.861L24.9814 102.145C18.8701 93.5002 12.8148 84.9314 11.5257 83.102C10.2362 81.2727 9.32798 79.7764 9.50747 79.7764C9.68696 79.7764 15.7417 83.3548 22.9632 87.7284Z" fill="black"/>
</svg>
