<svg width="118" height="92" viewBox="0 0 118 92" fill="none" xmlns="http://www.w3.org/2000/svg">
<path fill-rule="evenodd" clip-rule="evenodd" d="M7.15924 0.315988C3.70338 1.06842 1.02444 3.79184 0.275623 7.31414C-0.0918744 9.04367 -0.0918744 82.9437 0.275623 84.6732C1.04725 88.302 3.88056 91.076 7.48964 91.7357C9.41837 92.0885 108.591 92.0878 110.502 91.7353C114.128 91.0663 116.971 88.287 117.729 84.6732C118.09 82.9506 118.09 9.03677 117.729 7.31414C116.971 3.70031 114.128 0.921014 110.502 0.25206C108.47 -0.122776 8.89258 -0.0613762 7.15924 0.315988ZM110.591 3.81115C112.145 4.27176 113.617 5.69315 114.147 7.24446C114.43 8.07255 114.528 9.18532 114.528 11.5406V14.7191H59.0006H3.47274V11.5406C3.47274 7.70323 3.77849 6.58309 5.2183 5.14607C7.02422 3.34364 2.5071 3.48484 58.9011 3.46713C104.076 3.45265 109.504 3.48875 110.591 3.81115ZM8.42647 7.63263C7.27214 8.3071 7.08021 9.37182 7.95529 10.2452C8.72485 11.0135 9.74393 10.996 10.3681 10.2038C10.6308 9.8706 10.8457 9.36469 10.8457 9.07954C10.8457 7.95136 9.38058 7.07498 8.42647 7.63263ZM13.9249 7.62435C13.4194 7.87363 12.9194 8.72517 12.9194 9.33641C12.9194 9.92212 13.9993 10.8098 14.7119 10.8098C15.528 10.8098 16.3755 9.96581 16.3755 9.15313C16.3755 7.95711 14.9953 7.09591 13.9249 7.62435ZM19.4447 7.62872C19.1687 7.76463 18.827 8.15487 18.6855 8.49567C17.9816 10.1919 20.1484 11.6119 21.4043 10.2776C22.6759 8.92662 21.1092 6.80868 19.4447 7.62872ZM26.8177 7.63378C25.7097 8.16844 25.6475 9.99409 26.7175 10.5658C27.0338 10.7348 38.0954 10.8098 62.6871 10.8098C87.2788 10.8098 98.3404 10.7348 98.6567 10.5658C99.7617 9.97547 99.6578 8.15165 98.4888 7.62021C97.7079 7.26493 27.5543 7.27826 26.8177 7.63378ZM104.463 7.59193C103.397 8.02058 103.145 9.50612 104.002 10.3098C104.478 10.756 104.789 10.8098 106.897 10.8098C108.196 10.8098 109.458 10.704 109.7 10.5745C110.831 9.97041 110.821 8.28894 109.682 7.70139C108.945 7.32104 105.326 7.24515 104.463 7.59193ZM114.528 50.8969C114.528 87.7041 114.661 84.9666 112.786 86.8383C110.94 88.6807 115.514 88.5363 59.0006 88.5363C2.48682 88.5363 7.06131 88.6807 5.21553 86.8383C3.34002 84.9666 3.47274 87.7041 3.47274 50.8969V18.1685H59.0006H114.528V50.8969ZM67.0853 26.0032C65.0559 26.4077 63.2562 28.3044 62.9848 30.3249L62.8652 31.2132L61.1432 31.3583C59.1859 31.5237 58.0986 31.962 57.0498 33.0085C55.4434 34.612 55.4376 34.6481 55.3535 43.6455L55.2779 51.7606L53.3951 51.6942L51.5124 51.6277L51.3972 47.9483C51.2744 44.0266 51.1567 43.5717 49.921 42.243C49.5906 41.8877 48.8284 41.3703 48.2275 41.0932C47.1368 40.5905 47.1061 40.5896 31.3519 40.5896C18.6565 40.5896 15.3963 40.6506 14.6852 40.9014C13.5339 41.3075 12.3277 42.3792 11.6962 43.5572C11.2017 44.4796 11.1913 44.6813 11.1913 53.3524C11.1913 61.9851 11.2038 62.2289 11.6886 63.1257C12.324 64.301 13.2514 65.1763 14.417 65.7006C15.27 66.0844 16.4688 66.12 30.5084 66.1805C39.987 66.2214 46.1481 66.1591 46.9312 66.0147C48.6722 65.6935 50.0562 64.6862 50.7982 63.2002C51.3622 62.0709 51.3972 61.8014 51.3972 58.5964V55.1921H53.3398H55.2821L55.3558 63.1832C55.4279 71.023 55.4395 71.195 55.9685 72.2669C56.9645 74.2855 59.0338 75.4286 61.6922 75.4286H62.9175V76.1794C62.9175 77.1804 63.6728 78.5912 64.7048 79.5175C66.3423 80.9874 66.0563 80.9683 85.4074 80.897C102.822 80.8329 102.897 80.8306 103.815 80.3364C104.898 79.7528 105.786 78.8476 106.373 77.7282C106.888 76.7456 107.116 71.9314 106.718 70.4548C106.319 68.9771 105.215 67.6506 103.858 67.0203L102.663 66.4647L84.8563 66.4624C65.2197 66.4599 66.1513 66.3934 64.5684 67.9091C63.6191 68.8177 63.1666 69.6582 62.9548 70.9043C62.8122 71.7453 62.7097 71.8736 62.1272 71.9405C61.068 72.062 59.9582 71.7685 59.4605 71.2353C59.0197 70.7632 59.0006 70.4196 59.0006 62.9673V55.1921H60.9591H62.9175V55.8369C62.9175 56.1915 63.1871 57.0214 63.5166 57.6812C64.2576 59.1656 65.6428 60.1744 67.3793 60.495C68.1629 60.6394 74.9705 60.7012 85.6455 60.6608C101.467 60.6007 102.727 60.5669 103.584 60.1815C104.75 59.6572 105.677 58.782 106.313 57.6067C106.757 56.785 106.81 56.3311 106.81 53.3524C106.81 49.6146 106.551 48.7589 105.034 47.4824C103.316 46.0362 104.376 46.1087 84.9213 46.1087C67.3724 46.1087 67.1687 46.1139 66.1432 46.5923C64.3546 47.4266 63.2705 48.8121 62.9544 50.6678L62.7908 51.6277L60.8957 51.6944L59.0006 51.7613V43.8585V35.9557L59.566 35.4254C60.0109 35.0085 60.4139 34.8896 61.4565 34.868L62.7816 34.8406L62.9498 35.8005C63.2691 37.6236 64.364 39.0507 66.028 39.8126C66.8966 40.2102 67.9816 40.2348 84.8711 40.2396C104.263 40.2451 103.48 40.2939 105.034 38.9859C106.551 37.7094 106.81 36.8537 106.81 33.1159C106.81 30.1372 106.757 29.6833 106.313 28.8616C105.677 27.6863 104.75 26.8111 103.584 26.2868C102.725 25.9002 101.494 25.8696 85.3821 25.8363C75.8779 25.8167 67.6443 25.8917 67.0853 26.0032ZM102.059 29.4614C103.146 29.8397 103.469 30.6763 103.469 33.1159C103.469 35.2909 103.148 36.3742 102.422 36.6525C102.217 36.7309 94.262 36.7953 84.7446 36.7953H67.4401L66.9068 36.2953C66.4086 35.8281 66.3736 35.6192 66.3736 33.1159C66.3736 30.63 66.4112 30.4026 66.892 29.9659C67.1773 29.707 67.5659 29.4384 67.756 29.3689C68.4673 29.1095 101.302 29.1981 102.059 29.4614ZM47.3467 44.5964L47.9411 45.1541V53.3524V61.5507L47.3467 62.1084L46.7522 62.6658L31.8519 62.735C21.5868 62.7828 16.6831 62.7263 16.0889 62.5538C14.5594 62.1095 14.5322 61.9483 14.5322 53.3524C14.5322 44.8768 14.5779 44.5863 15.9753 44.1772C16.4186 44.0475 22.8086 43.9753 31.7367 43.999L46.7522 44.039L47.3467 44.5964ZM102.422 49.8158C103.148 50.0941 103.469 51.1774 103.469 53.3524C103.469 55.9158 103.148 56.6758 101.912 57.0352C101.314 57.2093 95.9213 57.2649 84.3061 57.2164L67.5625 57.1467L66.968 56.5893C66.3957 56.0526 66.3736 55.9328 66.3736 53.3846C66.3736 50.9834 66.4201 50.6881 66.8745 50.2052L67.3756 49.673H84.7123C94.2474 49.673 102.217 49.7374 102.422 49.8158ZM102.731 70.3759C103.417 71.0131 103.527 71.605 103.434 74.1482C103.364 76.0584 103.287 76.4029 102.829 76.8599L102.304 77.3832L85.5487 77.4504C76.3329 77.4872 68.4556 77.4566 68.0431 77.3821C66.6024 77.1225 66.3736 76.5991 66.3736 73.5622C66.3736 69.4735 64.1606 69.9095 84.9089 69.9095C101.99 69.9095 102.237 69.916 102.731 70.3759Z" fill="black"/>
</svg>
