<svg width="123" height="123" viewBox="0 0 123 123" fill="none" xmlns="http://www.w3.org/2000/svg">
<path fill-rule="evenodd" clip-rule="evenodd" d="M52.01 0.442911C50.544 1.02511 48.786 2.62739 48.1556 3.95599C47.9245 4.44292 47.6165 5.51618 47.4711 6.34082L47.2073 7.84008L45.2616 8.80284C39.0343 11.8842 30.941 17.8309 30.04 19.9873C29.7836 20.6015 29.6894 22.2389 29.6894 26.0879C29.6894 31.1263 29.6661 31.3697 29.1405 31.8407C28.2541 32.6351 25.4541 36.3199 24.3024 38.2079C21.3862 42.9882 19.2 48.4454 19.3334 50.6105C19.3838 51.4276 20.5438 52.3416 21.5306 52.3416C22.8925 52.3416 23.5692 51.526 24.5141 48.7454C26.1556 43.9156 28.8949 39.2247 32.2893 35.4307C33.3055 34.2947 34.2401 33.0962 34.3658 32.7675C34.4918 32.4389 34.5948 29.8013 34.5948 26.9063V21.643L36.4666 20.066C39.0046 17.928 42.7309 15.4781 46.2822 13.613C49.211 12.0745 49.2335 12.0678 49.699 12.5824C50.6264 13.6071 52.7618 14.4266 54.5311 14.4369C60.9531 14.4738 64.1992 7.26149 60.0046 2.276C58.3026 0.253664 54.616 -0.591624 52.01 0.442911ZM55.9328 5.07521C58.1258 6.41233 57.2208 9.74159 54.6646 9.74159C53.2619 9.74159 52.1478 8.63089 52.1594 7.2442C52.1687 6.10665 52.5369 5.52445 53.5957 4.9722C54.5753 4.46151 54.9532 4.47803 55.9328 5.07521ZM64.4029 13.6345L60.4806 17.5273L57.8567 17.7553C52.0422 18.2603 47.0446 19.6524 42.0281 22.164C39.4029 23.4787 38.9839 23.9013 38.9839 25.2353C38.9839 26.2056 40.1958 27.5561 41.0661 27.5561C41.3814 27.5561 42.7552 27.0204 44.1191 26.3657C48.8772 24.0818 53.9159 22.7088 58.3475 22.4883C62.6432 22.2748 62.1754 22.5187 66.4906 18.2396L70.3739 14.3889H71.6212C74.5846 14.3889 80.1063 15.4706 84.9813 17.0063L87.4751 17.792L87.7537 19.3725C87.9068 20.2418 88.3555 21.4762 88.7508 22.1157C91.3114 26.2575 97.1368 26.7191 100.378 23.0374C102.956 20.1081 102.819 15.9937 100.051 13.2079C97.3196 10.4604 93.3944 10.2817 90.1486 12.7574L89.2751 13.4238L86.2686 12.4912C80.2558 10.6261 75.369 9.74546 71.0173 9.74314L68.325 9.74159L64.4029 13.6345ZM96.797 16.5754C97.7951 17.5738 97.7149 19.1107 96.6129 20.0952C95.4669 21.1194 94.2105 21.1171 93.1822 20.0887C92.3772 19.2837 92.1668 17.9402 92.6922 16.9585C93.4205 15.5979 95.6145 15.3929 96.797 16.5754ZM71.8579 19.4188C70.9068 19.8251 70.4821 20.4943 70.4821 21.5865C70.4821 22.8157 71.387 23.5321 74.0966 24.4484C79.031 26.117 83.7604 28.9686 88.457 33.107L89.9221 34.398L95.5632 34.4764L101.204 34.5549L102.769 36.4128C104.896 38.9376 107.349 42.6696 109.211 46.2144C110.749 49.1432 110.756 49.1657 110.241 49.6312C109.2 50.5736 108.403 52.6793 108.403 54.4863C108.403 56.7622 109.156 58.4683 110.823 59.967C114.367 63.1537 119.844 62.1579 122.062 57.9235C122.643 56.8138 122.755 56.2698 122.759 54.5361C122.763 52.7193 122.671 52.3021 121.989 51.0706C120.833 48.9806 118.838 47.6726 116.268 47.3192L114.985 47.1426L114.022 45.1954C110.939 38.9665 104.993 30.8735 102.836 29.9722C102.222 29.7158 100.585 29.6216 96.7358 29.6216C91.6974 29.6216 91.4539 29.5984 90.983 29.0727C90.2872 28.2961 86.6386 25.4884 84.8695 24.3678C81.7156 22.3703 76.0919 19.8628 73.3221 19.2189C72.9671 19.1363 72.3082 19.2264 71.8579 19.4188ZM15.9063 21.0084C14.2165 21.5273 12.1284 23.5979 11.533 25.3453C10.6701 27.8776 11.1225 30.4423 12.8252 32.6751L13.4916 33.5485L12.559 36.5551C10.6939 42.5679 9.81324 47.4547 9.81091 51.8064L9.80936 54.4987L13.7022 58.4207L17.5951 62.343L17.8383 65.1446C18.3048 70.5181 19.895 76.1491 22.2953 80.9283C23.5483 83.4233 23.9786 83.8398 25.3031 83.8398C26.3276 83.8398 27.6239 82.6219 27.6239 81.66C27.6239 81.2913 27.1145 79.9753 26.492 78.7355C24.2446 74.2599 22.8117 69.0648 22.5661 64.5014C22.3325 60.1596 22.5904 60.6522 18.2708 56.2962L14.3833 52.3759L14.563 49.9297C14.7954 46.7618 15.7008 42.3399 16.9099 38.4664L17.8726 35.3816L19.4416 35.0899C22.1848 34.5797 24.6424 32.5228 25.2884 30.196C26.932 24.2783 21.758 19.2117 15.9063 21.0084ZM20.2012 26.2686C21.1872 27.3506 21.1701 28.6278 20.1565 29.6415C18.8863 30.9115 16.9246 30.6324 16.1147 29.0662C15.4166 27.7165 16.1031 25.9719 17.5548 25.4052C18.309 25.1109 19.5005 25.4995 20.2012 26.2686ZM56.1879 26.7924C41.2851 29.1176 29.4555 40.8094 26.9707 55.669C26.2796 59.8033 26.5359 65.9576 27.5635 69.898C30.8594 82.5347 40.1984 91.8803 52.9257 95.2785C55.8029 96.0466 56.0665 96.0711 61.4457 96.0711C66.8249 96.0711 67.0885 96.0466 69.9657 95.2785C82.6871 91.8821 91.9308 82.6397 95.3504 69.898C96.1252 67.011 96.1469 66.7752 96.1417 61.378C96.1366 56.0106 96.1102 55.7289 95.345 52.858C91.9618 40.1657 82.5771 30.7715 70.0148 27.5019C67.2907 26.7929 66.5438 26.7085 62.3494 26.6362C59.7934 26.5921 57.0207 26.6623 56.1879 26.7924ZM66.2528 31.5685C72.8739 32.7169 78.1013 35.408 82.7584 40.0653C94.6407 51.9473 94.6407 70.8086 82.7584 82.6906C70.8743 94.5747 52.068 94.5716 40.131 82.6831C28.259 70.8594 28.2598 51.9383 40.1331 40.0653C47.0565 33.1416 56.8873 29.9438 66.2528 31.5685ZM59.5321 35.8247C58.9119 36.3963 57.9977 37.6451 57.5005 38.6001C56.563 40.4002 55.2494 43.833 55.2494 44.4825C55.2494 44.7957 56.224 44.8543 61.4457 44.8543C66.6675 44.8543 67.6421 44.7957 67.6421 44.4825C67.6421 43.833 66.3285 40.4002 65.391 38.6001C64.2679 36.4435 62.5531 34.7852 61.4457 34.7852C60.8868 34.7852 60.334 35.0855 59.5321 35.8247ZM52.5385 36.3162C49.2017 37.5065 45.8606 39.5892 43.0802 42.2118C40.114 45.01 39.9565 44.8543 45.7521 44.8543H50.7312L51.593 42.0789C52.067 40.5522 52.8405 38.5193 53.3117 37.5607C53.7829 36.6021 54.0919 35.8265 53.9987 35.8368C53.9055 35.8471 53.2485 36.063 52.5385 36.3162ZM69.0043 36.4113C69.6492 37.3957 70.8704 40.4626 71.5177 42.7243L72.1275 44.8543H77.123C82.937 44.8543 82.778 45.0108 79.8112 42.2118C76.9777 39.5389 73.6048 37.453 70.2492 36.2987C68.5078 35.6995 68.5362 35.6969 69.0043 36.4113ZM96.0222 39.6708C95.6071 40.086 95.2675 40.6808 95.2675 40.9927C95.2675 41.3046 95.7924 42.6461 96.4338 43.9737C98.699 48.6617 100.115 53.8548 100.335 58.2798C100.549 62.5775 100.301 62.1032 104.622 66.4616L108.511 70.3831L108.334 72.787C108.098 75.973 107.103 80.8245 105.941 84.4599L104.998 87.4079L103.812 87.5746C103.159 87.6665 102.019 88.0327 101.277 88.3882C96.7064 90.5796 95.9156 96.9027 99.7862 100.31C102.716 102.889 106.841 102.766 109.589 100.017C112.365 97.242 112.552 93.3398 110.066 90.0808L109.4 89.2074L110.332 86.2009C112.426 79.4528 113.252 74.284 113.1 68.8841C113.087 68.4333 111.988 67.1556 109.189 64.3352L105.296 60.4129L105.053 57.6113C104.765 54.2973 103.791 49.7667 102.702 46.682C101.658 43.7248 99.5265 39.5192 98.902 39.1849C97.9562 38.6789 96.8231 38.8699 96.0222 39.6708ZM37.1056 50.728C36.2474 52.6641 35.4571 55.2823 35.2491 56.8776C35.1577 57.5778 35.0291 58.412 34.963 58.7316L34.8432 59.3125H41.9481H49.053L49.0551 57.5698C49.0571 55.9324 49.3775 52.387 49.7204 50.2116L49.873 49.2434H43.8181H37.7635L37.1056 50.728ZM54.0917 49.562C53.8795 50.1822 53.4653 53.7699 53.2869 56.537L53.1077 59.3125H61.4429H69.7778L69.5893 56.408C69.4858 54.8106 69.2666 52.574 69.1024 51.438L68.8039 49.3725L61.5038 49.3038C55.7975 49.2504 54.1792 49.3067 54.0917 49.562ZM73.1711 50.2116C73.5139 52.387 73.8343 55.9324 73.8364 57.5698L73.8385 59.3125H80.8956H87.953L87.7372 57.735C87.4307 55.4932 86.825 53.2785 85.9273 51.1152L85.1502 49.2434H79.0844H73.0185L73.1711 50.2116ZM117.281 52.7384C118.15 53.6075 118.335 54.4688 117.883 55.5495C116.791 58.1623 113.082 57.371 113.082 54.5253C113.082 52.4103 115.798 51.2549 117.281 52.7384ZM5.08541 61.2339C2.00556 62.3327 0.00413548 65.1035 4.57537e-06 68.2745C-0.00231906 69.8881 0.880663 71.9678 2.08405 73.1831C3.34682 74.4585 4.42524 75.004 6.41582 75.374L7.90321 75.6508L9.00616 77.8043C12.3574 84.3492 17.9189 91.8909 20.0509 92.7819C20.669 93.0401 22.2834 93.1343 26.0898 93.1343H31.2847L32.7462 94.4461C37.1916 98.4369 46.8561 103.462 50.0862 103.462C51.4673 103.462 52.4094 102.582 52.4094 101.293C52.4094 99.9312 51.5938 99.2545 48.8131 98.3096C43.7262 96.5805 38.869 93.6873 35.0673 90.1213C34.2623 89.3662 33.2962 88.6314 32.9205 88.4886C32.5438 88.3453 29.8784 88.2289 26.9741 88.2289H21.7108L20.1338 86.357C17.9958 83.8191 15.5459 80.0928 13.6808 76.5415C12.1423 73.6127 12.1356 73.5902 12.6501 73.1247C14.413 71.5291 15.0184 67.8142 13.9287 65.2809C12.488 61.9323 8.38781 60.0558 5.08541 61.2339ZM35.1577 65.0571C35.4509 67.2167 36.2844 70.2101 37.0987 72.028L37.7635 73.5125H43.8181H49.873L49.7204 72.5443C49.3775 70.3689 49.0571 66.8235 49.0551 65.1861L49.053 63.4434H41.9959H34.9385L35.1577 65.0571ZM53.3022 66.348C53.4057 67.9456 53.6249 70.182 53.7891 71.318L54.0875 73.3834H61.4457H68.8039L69.099 71.318C69.2614 70.182 69.4785 67.9456 69.5818 66.348L69.7695 63.4434H61.4416H53.1137L53.3022 66.348ZM73.8364 65.1861C73.8343 66.8235 73.5139 70.3689 73.1711 72.5443L73.0185 73.5125H79.0733H85.128L85.7858 72.028C86.644 70.0919 87.4343 67.4736 87.6424 65.8783C87.7338 65.1781 87.8624 64.3439 87.9285 64.0243L88.0483 63.4434H80.9434H73.8385L73.8364 65.1861ZM8.08961 65.7513C9.92038 66.4474 10.4104 68.5621 9.0547 69.9178C8.49909 70.4734 8.05399 70.6725 7.36748 70.6725C4.6811 70.6725 3.75397 67.3928 6.04507 65.9955C6.95129 65.443 7.20069 65.4133 8.08961 65.7513ZM99.8322 70.9952C99.4565 71.343 98.8725 72.5531 98.3773 74.0105C96.7358 78.8403 93.9965 83.5312 90.6022 87.3252C89.586 88.4612 88.6514 89.6597 88.5256 89.9884C88.3997 90.317 88.2966 92.9546 88.2966 95.8496V101.113L86.4248 102.69C83.8869 104.828 80.1606 107.278 76.6093 109.143C73.6804 110.681 73.658 110.688 73.1925 110.174C72.2651 109.149 70.1297 108.329 68.3604 108.319C62.7865 108.287 59.2285 114.121 61.8663 118.968C62.654 120.415 63.5391 121.263 65.1594 122.123C66.6858 122.933 69.9025 122.926 71.4433 122.109C73.7579 120.882 75.182 118.828 75.5272 116.22L75.7007 114.908L77.6381 113.949C83.8572 110.872 91.9509 104.923 92.8515 102.769C93.1078 102.154 93.2021 100.517 93.2021 96.6681C93.2021 91.6436 93.2266 91.3849 93.7468 90.9153C94.0463 90.6447 94.8439 89.7263 95.519 88.8743C98.7202 84.8353 101.381 79.9947 102.908 75.4298C103.75 72.9138 103.781 72.7049 103.43 71.8648C102.791 70.3376 101.008 69.9067 99.8322 70.9952ZM40.7912 78.0498C40.7912 78.1314 41.4547 78.8938 42.2657 79.744C44.8728 82.4773 48.5777 84.9094 52.2217 86.2801C54.3524 87.0818 54.3708 87.0825 53.8872 86.3447C53.2423 85.3602 52.0211 82.2933 51.3738 80.0316L50.764 77.9016H45.7774C43.035 77.9016 40.7912 77.9682 40.7912 78.0498ZM55.2494 78.2734C55.2494 78.923 56.563 82.3558 57.5005 84.1558C58.6235 86.3124 60.3384 87.9707 61.4457 87.9707C62.5531 87.9707 64.2679 86.3124 65.391 84.1558C66.3285 82.3558 67.6421 78.923 67.6421 78.2734C67.6421 77.9602 66.6675 77.9016 61.4457 77.9016C56.224 77.9016 55.2494 77.9602 55.2494 78.2734ZM71.2985 80.677C70.8244 82.2037 70.0509 84.2369 69.5797 85.1952C69.1086 86.1536 68.7523 86.938 68.7876 86.938C69.1393 86.938 71.9997 85.7983 73.3231 85.1309C75.7301 83.9175 77.7463 82.4921 79.8112 80.5441C82.7775 77.7459 82.935 77.9016 77.1393 77.9016H72.1603L71.2985 80.677ZM106.242 92.983C107.511 94.252 107.337 95.9408 105.833 96.9611C104.715 97.7201 103.67 97.5624 102.69 96.4873C102.195 95.9431 101.98 95.4306 101.98 94.7885C101.98 92.7003 104.775 91.5163 106.242 92.983ZM79.1312 96.2317C74.5541 98.4991 69.1584 99.9976 64.673 100.247C60.2077 100.496 60.7244 100.229 56.4009 104.516C52.7014 108.185 52.469 108.367 51.4884 108.367C48.4958 108.367 42.2788 107.168 37.9303 105.753L35.4484 104.945L35.1571 103.379C34.9968 102.518 34.5409 101.288 34.1438 100.645C31.58 96.4984 25.7565 96.0345 22.5137 99.7185C19.9347 102.648 20.0579 106.773 22.8065 109.522C25.5817 112.297 29.4839 112.484 32.7429 109.999L33.6163 109.332L36.6228 110.265C42.568 112.109 47.6113 113.014 51.9371 113.014H54.5665L58.4885 109.121L62.4108 105.229L65.2123 104.985C70.5859 104.519 76.2168 102.929 80.996 100.528C83.4911 99.2754 83.9075 98.8451 83.9075 97.5206C83.9075 96.5351 82.6892 95.1977 81.7974 95.2042C81.4669 95.2065 80.2672 95.6689 79.1312 96.2317ZM29.7092 102.667C30.9792 103.937 30.7001 105.899 29.134 106.709C27.4145 107.598 25.441 106.393 25.441 104.453C25.441 103.601 25.5954 103.271 26.2785 102.661C27.4246 101.637 28.6809 101.639 29.7092 102.667ZM69.9856 113.769C71.4327 115.216 70.7015 117.604 68.6748 118.049C67.0676 118.402 65.36 116.653 65.7186 115.022C66.1565 113.027 68.5429 112.326 69.9856 113.769Z" fill="black"/>
</svg>
